<svg width="101" height="120" viewBox="0 0 101 120" fill="none" xmlns="http://www.w3.org/2000/svg">
<path fill-rule="evenodd" clip-rule="evenodd" d="M68.0116 93.9709C73.8752 86.1289 75.4289 76.3919 73.0804 67.6083C72.9502 67.1215 73.0278 66.6008 73.3021 66.178C78.982 57.4219 82.2087 47.9495 84.0366 39.7539C84.1047 39.4487 84.2649 39.1758 84.4522 38.9254V38.9254C85.0829 38.0818 85.2587 37.0382 85.0219 36.0893C84.9433 35.7744 84.8973 35.4479 84.9528 35.1281C84.978 34.9833 85.0027 34.8391 85.027 34.6956C86.4516 26.2725 78.6451 20.4128 70.9775 24.1499V24.1499C70.6741 24.2977 70.3244 24.2991 69.9958 24.2224C68.737 23.9284 67.367 24.3798 66.5426 25.4822C66.4055 25.6657 66.2898 25.8587 66.1952 26.058C65.9865 26.4979 65.7054 26.9165 65.2827 27.158C58.2461 31.1775 50.5634 36.7521 44.1192 44.2696C43.7903 44.6533 43.3111 44.875 42.8059 44.8868C33.7339 45.0982 24.8458 49.3285 18.983 57.1695C15.768 61.4693 21.0171 66.087 26.3745 65.8224C28.4654 65.7192 30.5707 65.8294 32.6552 66.1582C33.3329 66.265 33.8518 66.7955 34.0423 67.4545C35.1918 71.4297 38.0647 75.148 41.5345 77.7225C41.61 77.7785 41.6857 77.8349 41.7615 77.8918C45.1948 80.4689 49.6539 82.1836 53.8641 82.205C54.5383 82.2084 55.1787 82.554 55.4702 83.162C56.4144 85.1314 57.1417 87.1888 57.6466 89.2957C58.8987 94.5213 64.7967 98.2706 68.0116 93.9709ZM42.7384 93.6474C41.2086 95.6934 35.8296 99.3747 30.4095 102.786C25.4605 105.901 19.5143 101.438 21.107 95.8035C22.8513 89.633 24.8657 83.4263 26.3956 81.3802C29.7673 76.8708 36.1591 75.9612 40.6721 79.3487C45.185 82.7362 46.1102 89.1379 42.7384 93.6474Z" fill="url(#paint0_linear_2_2)" fill-opacity="0.55"/>
<ellipse cx="57.5067" cy="48.3136" rx="5.35778" ry="5.36817" fill="white"/>
<path fill-rule="evenodd" clip-rule="evenodd" d="M29.338 64.0044C29.2981 64.1084 29.261 64.2127 29.2267 64.3173C29.0779 64.7709 28.6468 65.0914 28.1725 65.0447C24.4102 64.6744 20.6146 64.9723 16.9696 65.9119C14.0437 66.6661 11.0171 64.1964 12.3049 61.4581C13.2188 59.5149 14.3414 57.6347 15.6772 55.8483C21.1791 48.4899 29.2198 44.1614 37.667 43.1692C37.7037 43.1649 37.7405 43.1606 37.7772 43.1565C38.0405 43.1265 38.3041 43.0997 38.5681 43.0762C38.9075 43.0459 39.2475 43.0211 39.5878 43.0016C40.3525 42.9578 40.773 43.8458 40.2977 44.4476C40.1015 44.696 39.9066 44.9463 39.7131 45.1986C39.5544 45.4054 39.3966 45.6136 39.2398 45.823C39.2307 45.8351 39.2216 45.8473 39.2125 45.8594C39.203 45.8722 39.1934 45.8851 39.1838 45.8979C34.8605 51.6887 31.6786 57.9133 29.338 64.0044ZM35.2612 46.466C31.7755 51.5449 29.0896 56.8651 27.0195 62.0841C23.3955 61.8773 19.7625 62.2357 16.2577 63.1391C15.7366 63.2734 15.2289 63.1008 14.9668 62.8649C14.9066 62.8108 14.8766 62.7691 14.8627 62.7458C14.8673 62.7309 14.8755 62.7089 14.8898 62.6785C15.7218 60.9093 16.7448 59.1955 17.9641 57.5649C22.3782 51.6614 28.5832 47.898 35.2612 46.466ZM14.8571 62.7703C14.8571 62.7703 14.857 62.7684 14.8579 62.7639C14.8578 62.768 14.8571 62.7703 14.8571 62.7703Z" fill="#333333"/>
<path fill-rule="evenodd" clip-rule="evenodd" d="M53.2397 81.1141C54.4563 84.5407 55.134 88.135 55.2536 91.7591C55.2714 92.2979 55.5795 92.7376 55.8791 92.9233C55.9478 92.9659 55.9962 92.9831 56.0225 92.9899C56.0354 92.9813 56.0542 92.9673 56.0792 92.945C57.5401 91.6477 58.8941 90.1824 60.1134 88.5517C64.5276 82.648 66.3885 75.6237 65.8832 68.7998C61.9979 73.579 57.6567 77.6569 53.2397 81.1141ZM65.3249 64.8683C61.0901 70.5237 56.1515 75.2464 51.0956 79.1574C50.9077 79.3027 50.7145 79.4362 50.5165 79.558C50.0923 79.8191 49.8818 80.346 50.0682 80.8085C51.4876 84.3306 52.273 88.0744 52.3977 91.8537C52.4976 94.8791 55.7137 97.0954 57.9746 95.0875C59.5791 93.6626 61.0645 92.0547 62.4003 90.2683C67.9023 82.9097 69.7886 73.9614 68.3648 65.5599C68.3587 65.5234 68.3524 65.4869 68.3461 65.4504C68.3008 65.1888 68.2524 64.9278 68.2007 64.6674C68.1343 64.3325 68.0626 63.9986 67.9856 63.6659C67.8126 62.9183 66.8439 62.7635 66.401 63.3897C66.2182 63.6482 66.0332 63.9059 65.846 64.1629C65.6925 64.3736 65.5374 64.5838 65.3809 64.7934C65.3718 64.8057 65.3627 64.8179 65.3535 64.8301C65.344 64.8429 65.3345 64.8556 65.3249 64.8683Z" fill="#333333"/>
<path d="M39.079 43.4992C53.4241 24.3137 76.1476 16.0392 83.2297 13.8444C83.1178 21.2711 81.5781 45.4465 67.233 64.632C61.8359 71.8502 55.2451 77.5335 48.7254 81.9357C48.7249 81.9358 48.7242 81.9359 48.7234 81.9361C48.7169 81.9372 48.6989 81.939 48.6702 81.9332C48.6061 81.9201 48.5424 81.8805 48.5032 81.8292C47.0653 79.9439 44.1601 76.6467 39.1076 72.8542C34.3124 69.2549 30.0409 67.2704 27.7767 66.3619C27.7356 66.3454 27.702 66.313 27.6845 66.2784C27.6784 66.2663 27.6763 66.2579 27.6757 66.2541C30.0598 58.7197 33.6588 50.7482 39.079 43.4992Z" stroke="#333333" stroke-width="3.4"/>
<path d="M63.1398 52.4083C60.7968 55.5419 56.3631 56.1781 53.2372 53.8317C50.1113 51.4854 49.4746 47.0433 51.8176 43.9098C54.1606 40.7762 58.5943 40.14 61.7202 42.4863C64.8461 44.8327 65.4828 49.2747 63.1398 52.4083Z" stroke="#333333" stroke-width="3"/>
<path d="M33.9157 94.7408C33.4023 95.4275 32.1963 96.5053 30.3852 97.8701C28.6245 99.1969 26.4389 100.688 24.1121 102.199C19.5048 105.192 14.4192 108.215 11.1515 110.118C12.0565 106.441 13.5229 100.701 15.0944 95.4303C15.888 92.7682 16.702 90.2476 17.478 88.1817C18.2762 86.0567 18.9697 84.5942 19.4831 83.9075C22.4574 79.9296 28.1005 79.1228 32.0887 82.1164C36.0769 85.1101 36.89 90.7629 33.9157 94.7408Z" stroke="#333333" stroke-width="3.4"/>
<path d="M33.1172 88.6466C32.9141 88.9182 32.385 89.4154 31.4752 90.1118C30.608 90.7756 29.5184 91.5288 28.3208 92.313C25.9732 93.8504 23.2849 95.4586 21.2087 96.6681C21.7838 94.3318 22.5686 91.2948 23.3814 88.6054C23.796 87.2336 24.2113 85.9741 24.6034 84.9537C25.0147 83.8832 25.3423 83.2346 25.5453 82.963C27.0491 80.9519 29.9721 80.5276 32.089 82.1166C34.2059 83.7056 34.621 86.6354 33.1172 88.6466Z" stroke="#333333" stroke-width="3.4"/>
<path d="M76.2302 36.2115L63.0805 26.3411" stroke="#333333" stroke-width="3.4"/>
<defs>
<linearGradient id="paint0_linear_2_2" x1="39.3284" y1="21.7458" x2="99.7937" y2="50.7896" gradientUnits="userSpaceOnUse">
<stop offset="0.00134215" stop-color="#12A191"/>
<stop offset="1" stop-color="#44A5CB"/>
</linearGradient>
</defs>
</svg>
