<svg width="164" height="30" viewBox="0 0 164 30" fill="none" xmlns="http://www.w3.org/2000/svg">
<path d="M13.7624 14.603V5.43988L4.38133 9.97079L13.7624 14.603Z" fill="#15A881"/>
<path d="M5.96727 7.74732L14.1685 3.70622L10.7894 0.327004C10.6857 0.223331 10.5626 0.141093 10.4272 0.0849855C10.2917 0.0288778 10.1465 0 9.99995 0C9.85336 0 9.70818 0.0288778 9.57272 0.0849855C9.43727 0.141093 9.31422 0.223331 9.21054 0.327004L5.96727 3.57029V7.74732Z" fill="#15A881"/>
<path d="M19.6731 9.2106L15.2293 4.76683L15.1471 4.80838V15.2961L15.1603 15.3023L19.6731 10.7894C19.7768 10.6857 19.859 10.5626 19.9152 10.4272C19.9713 10.2918 20.0001 10.1466 20.0001 10C20.0001 9.85338 19.9713 9.70824 19.9151 9.57278C19.859 9.43733 19.7768 9.31428 19.6731 9.2106Z" fill="#15A881"/>
<path d="M4.57091 11.511L1.46845 9.96424L4.57091 8.43542V4.96674L0.327004 9.2106C0.223331 9.31428 0.141093 9.43733 0.0849855 9.57278C0.0288778 9.70824 0 9.85342 0 10C0 10.1466 0.0288778 10.2918 0.0849855 10.4272C0.141093 10.5626 0.223331 10.6857 0.327004 10.7894L4.57091 15.0333V11.511Z" fill="#15A881"/>
<path d="M5.96727 12.2072V16.4297L9.21054 19.673C9.31422 19.7767 9.43727 19.8589 9.57272 19.9151C9.70818 19.9712 9.85336 20 9.99995 20C10.1465 20 10.2917 19.9712 10.4272 19.9151C10.5626 19.8589 10.6857 19.7767 10.7894 19.673L14.167 16.2954L5.96727 12.2072Z" fill="#15A881"/>
<path fill-rule="evenodd" clip-rule="evenodd" d="M128.591 13.9653V5.96669H130V13.9653H128.591ZM118.498 13.9653L116.528 11.177H114.762V13.9653H113.353V5.96669H116.927C117.774 5.91979 118.605 6.2071 119.241 6.76656C119.684 7.23147 119.923 7.85224 119.906 8.49269V8.51506C119.924 9.07733 119.743 9.62792 119.395 10.0707C119.047 10.5135 118.555 10.8204 118.003 10.9379L120.172 13.9666H118.498V13.9653ZM118.473 8.59383V8.57101C118.473 7.71397 117.858 7.24483 116.815 7.24483H114.762V9.92997H116.823C117.833 9.93078 118.473 9.40569 118.473 8.59383ZM102.237 14.0909C100.151 14.0909 98.8213 12.8911 98.8213 10.5707V5.96547H100.23V10.5139C100.23 11.9996 100.999 12.7888 102.258 12.7888C103.509 12.7888 104.278 12.0452 104.278 10.5707V5.96547H105.686V10.5031C105.686 12.8911 104.336 14.0909 102.237 14.0909ZM90.2986 13.9666L87.5559 10.3672L86.3095 11.647V13.9678H84.9009V5.96924H86.3095V9.99215L90.1241 5.96924H91.8654L88.52 9.40906L92.015 13.9678H90.2986V13.9666ZM75.4927 12.0349H71.6986L70.8759 13.9666H69.43L72.9577 5.9091H74.2668L77.795 13.9666H76.3073L75.4927 12.0349ZM73.5895 7.58965L72.2141 10.7895H74.9772L73.5895 7.58965ZM61.2518 13.9666L59.2782 11.1782H57.5163V13.9666H56.1032V5.96797H59.6813C60.5282 5.92179 61.3591 6.20901 61.9959 6.76783C62.4377 7.23269 62.6768 7.85347 62.6604 8.49397V8.51633C62.6782 9.07856 62.4973 9.62915 62.1495 10.072C61.8018 10.5148 61.3091 10.8217 60.7572 10.9391L62.9222 13.9678H61.2518V13.9666ZM61.2268 8.59506V8.57101C61.2268 7.71397 60.6077 7.24483 59.565 7.24483H57.5163V9.92997H59.5773C60.5873 9.93078 61.2268 9.40569 61.2268 8.59383V8.59506ZM46.6995 12.0349H42.9056L42.0787 13.9666H40.6367L44.1647 5.9091H45.4736L49.0018 13.9666H47.5141L46.6995 12.0349ZM44.7963 7.58965L43.4208 10.7895H46.18L44.7963 7.58965ZM32.6707 13.9666L29.9322 10.3672L28.6856 11.647V13.9678H27.2727V5.96919H28.6856V9.99215L32.5003 5.96919H34.2414L30.8963 9.40901L34.391 13.9678H32.6707V13.9666Z" fill="#15A881"/>
<path d="M32.0391 21.293H33.3633V27H32.0391V26.4023C31.4961 26.9102 30.9121 27.1641 30.2871 27.1641C29.498 27.1641 28.8457 26.8789 28.3301 26.3086C27.8184 25.7266 27.5625 25 27.5625 24.1289C27.5625 23.2734 27.8184 22.5605 28.3301 21.9902C28.8418 21.4199 29.4824 21.1348 30.252 21.1348C30.916 21.1348 31.5117 21.4082 32.0391 21.9551V21.293ZM28.9102 24.1289C28.9102 24.6758 29.0566 25.1211 29.3496 25.4648C29.6504 25.8125 30.0293 25.9863 30.4863 25.9863C30.9746 25.9863 31.3691 25.8184 31.6699 25.4824C31.9707 25.1348 32.1211 24.6934 32.1211 24.1582C32.1211 23.623 31.9707 23.1816 31.6699 22.834C31.3691 22.4941 30.9785 22.3242 30.498 22.3242C30.0449 22.3242 29.666 22.4961 29.3613 22.8398C29.0605 23.1875 28.9102 23.6172 28.9102 24.1289ZM35.0273 21.293H36.3516V21.8203C36.8125 21.3633 37.332 21.1348 37.9102 21.1348C38.5742 21.1348 39.0918 21.3438 39.4629 21.7617C39.7832 22.1172 39.9434 22.6973 39.9434 23.502V27H38.6191V23.8125C38.6191 23.25 38.541 22.8613 38.3848 22.6465C38.2324 22.4277 37.9551 22.3184 37.5527 22.3184C37.1152 22.3184 36.8047 22.4629 36.6211 22.752C36.4414 23.0371 36.3516 23.5352 36.3516 24.2461V27H35.0273V21.293ZM42.9316 21.293V27H41.6133V21.293H42.9316ZM41.4141 18.9199C41.4141 18.6895 41.498 18.4902 41.666 18.3223C41.834 18.1543 42.0352 18.0703 42.2695 18.0703C42.5078 18.0703 42.7109 18.1543 42.8789 18.3223C43.0469 18.4863 43.1309 18.6875 43.1309 18.9258C43.1309 19.1641 43.0469 19.3672 42.8789 19.5352C42.7148 19.7031 42.5137 19.7871 42.2754 19.7871C42.0371 19.7871 41.834 19.7031 41.666 19.5352C41.498 19.3672 41.4141 19.1621 41.4141 18.9199ZM44.6016 21.293H45.9199V21.8203C46.1738 21.5547 46.3906 21.375 46.5703 21.2812C46.7617 21.1836 47.002 21.1348 47.291 21.1348C47.9355 21.1348 48.4453 21.416 48.8203 21.9785C49.2344 21.416 49.7949 21.1348 50.502 21.1348C51.7871 21.1348 52.4297 21.9141 52.4297 23.4727V27H51.1055V23.8301C51.1055 23.2832 51.0391 22.8965 50.9062 22.6699C50.7695 22.4395 50.5449 22.3242 50.2324 22.3242C49.8691 22.3242 49.6035 22.4609 49.4355 22.7344C49.2715 23.0078 49.1895 23.4473 49.1895 24.0527V27H47.8652V23.8477C47.8652 22.832 47.5723 22.3242 46.9863 22.3242C46.6152 22.3242 46.3438 22.4629 46.1719 22.7402C46.0039 23.0176 45.9199 23.4551 45.9199 24.0527V27H44.6016V21.293ZM58.3008 21.293H59.625V27H58.3008V26.4023C57.7578 26.9102 57.1738 27.1641 56.5488 27.1641C55.7598 27.1641 55.1074 26.8789 54.5918 26.3086C54.0801 25.7266 53.8242 25 53.8242 24.1289C53.8242 23.2734 54.0801 22.5605 54.5918 21.9902C55.1035 21.4199 55.7441 21.1348 56.5137 21.1348C57.1777 21.1348 57.7734 21.4082 58.3008 21.9551V21.293ZM55.1719 24.1289C55.1719 24.6758 55.3184 25.1211 55.6113 25.4648C55.9121 25.8125 56.291 25.9863 56.748 25.9863C57.2363 25.9863 57.6309 25.8184 57.9316 25.4824C58.2324 25.1348 58.3828 24.6934 58.3828 24.1582C58.3828 23.623 58.2324 23.1816 57.9316 22.834C57.6309 22.4941 57.2402 22.3242 56.7598 22.3242C56.3066 22.3242 55.9277 22.4961 55.623 22.8398C55.3223 23.1875 55.1719 23.6172 55.1719 24.1289ZM62.6484 22.5234V27H61.3301V22.5234H60.7676V21.293H61.3301V19.2012H62.6484V21.293H63.6738V22.5234H62.6484ZM69.873 24.457H65.7832C65.8184 24.9258 65.9707 25.2988 66.2402 25.5762C66.5098 25.8496 66.8555 25.9863 67.2773 25.9863C67.6055 25.9863 67.877 25.9082 68.0918 25.752C68.3027 25.5957 68.543 25.3066 68.8125 24.8848L69.9258 25.5059C69.7539 25.7988 69.5723 26.0508 69.3809 26.2617C69.1895 26.4688 68.9844 26.6406 68.7656 26.7773C68.5469 26.9102 68.3105 27.0078 68.0566 27.0703C67.8027 27.1328 67.5273 27.1641 67.2305 27.1641C66.3789 27.1641 65.6953 26.8906 65.1797 26.3438C64.6641 25.793 64.4062 25.0625 64.4062 24.1523C64.4062 23.25 64.6562 22.5195 65.1562 21.9609C65.6602 21.4102 66.3281 21.1348 67.1602 21.1348C68 21.1348 68.6641 21.4023 69.1523 21.9375C69.6367 22.4688 69.8789 23.2051 69.8789 24.1465L69.873 24.457ZM68.5195 23.3789C68.3359 22.6758 67.8926 22.3242 67.1895 22.3242C67.0293 22.3242 66.8789 22.3496 66.7383 22.4004C66.5977 22.4473 66.4688 22.5176 66.3516 22.6113C66.2383 22.7012 66.1406 22.8105 66.0586 22.9395C65.9766 23.0684 65.9141 23.2148 65.8711 23.3789H68.5195Z" fill="#242424"/>
</svg>
