<svg width="623" height="409" viewBox="0 0 623 409" fill="none" xmlns="http://www.w3.org/2000/svg">
<g opacity="0.2" clip-path="url(#clip0_5_28)">
<path d="M274.351 0.719121C273.274 0.898901 272.376 1.25846 271.478 1.43824C270.58 1.7978 269.683 2.15736 268.605 2.6967C266.989 3.5956 265.553 4.67429 264.117 6.11253C262.86 7.37099 261.962 8.80923 261.064 10.607C260.346 12.0453 259.628 13.8431 259.448 15.8207C259.089 17.6185 259.089 19.4163 259.269 21.3938C259.448 23.1916 259.987 25.1692 260.705 26.967C261.423 28.7648 262.68 30.5626 263.937 32.1807C264.655 33.0796 265.373 33.7987 266.271 34.5178C267.169 35.4167 268.246 35.956 269.144 36.4954C270.76 37.5741 272.555 38.2932 274.89 39.0123C276.685 39.5517 278.66 39.9112 280.994 40.091C282.431 40.2708 283.687 40.2708 285.303 40.2708C288.176 40.2708 291.049 40.091 293.742 39.9112C295.717 39.7314 297.692 39.5516 299.667 39.5516C300.745 39.5516 301.642 39.3719 302.54 39.3719C302.899 39.3719 303.258 39.3719 303.617 39.3719C304.336 39.3719 305.233 39.3719 305.951 39.3719C307.208 39.3719 308.286 39.5516 309.542 39.7314C311.517 39.9112 313.313 40.091 315.288 40.6303C318.34 41.3495 321.213 42.2484 323.906 43.5068C325.343 44.2259 326.779 44.9451 328.215 45.844C329.472 46.5631 330.729 47.462 331.806 48.3609C333.063 49.2598 334.32 50.3385 335.397 51.5969L335.577 51.7767C335.577 51.7767 335.577 51.7767 335.577 51.5969C335.038 49.4396 334.5 46.9226 333.781 44.4057C333.063 42.0686 332.345 39.7314 331.268 37.3943C329.293 32.72 326.959 28.4053 323.906 24.2703C318.52 16.8993 310.979 10.4273 302.181 5.75297C297.692 3.41582 293.203 1.61802 288.535 0.719121C286.022 0.17978 283.687 0 281.174 0C278.84 0 276.505 0.17978 274.351 0.719121Z" fill="#05C290"/>
<path d="M281.353 6.11243C280.276 6.11243 279.199 6.29221 278.121 6.65177C278.121 6.65177 278.121 6.65177 277.942 6.65177C277.403 6.65177 276.865 7.01133 276.685 7.55067C276.326 8.09001 276.146 8.62935 276.326 9.16869C276.506 9.70803 276.685 10.2474 277.224 10.4272C277.403 10.4272 277.583 10.6069 277.762 10.6069C278.121 10.7867 278.301 10.7867 278.66 10.7867C279.737 10.9665 280.635 11.1463 281.712 11.1463C282.79 11.3261 284.047 11.3261 285.124 11.5058C287.458 11.8654 289.792 12.225 292.126 12.7643C294.819 13.4834 297.692 14.2025 300.386 15.2812C301.822 15.8206 303.258 16.3599 304.695 17.079C305.952 17.6184 307.208 18.3375 308.465 19.0566C310.081 19.9555 311.518 20.8544 312.954 21.7533C314.39 22.6522 315.647 23.7309 316.904 24.9893C318.52 26.6074 319.956 28.2254 321.213 30.203C321.393 30.5625 321.572 30.9221 321.752 31.2817C321.931 31.4614 322.111 31.6412 322.29 31.4614C322.47 31.2817 322.65 31.1019 322.47 30.9221C321.572 29.3041 320.495 27.5063 319.418 26.068C318.34 24.45 316.904 22.832 315.647 21.3937C314.211 19.7757 312.595 18.3375 311.158 17.079C309.542 15.6408 307.747 14.5621 305.952 13.3036C302.181 10.9665 298.231 9.16869 294.101 7.91023C291.947 7.19111 289.792 6.83155 287.638 6.47199C286.201 6.29221 284.944 6.11243 283.508 6.11243C282.79 6.11243 282.072 6.11243 281.353 6.11243ZM308.286 19.0566C308.286 19.0566 308.465 19.0566 308.465 19.2364C308.465 19.2364 308.286 19.2364 308.286 19.0566Z" fill="#FEFEFE"/>
<path d="M269.503 8.09012C268.964 8.44968 268.785 8.98902 268.785 9.52836C268.605 10.607 269.503 11.8655 270.76 11.8655C271.298 11.8655 271.837 11.6857 272.376 11.3262C272.914 10.9666 273.094 10.4273 273.094 9.88792C273.273 8.80924 272.376 7.55078 271.119 7.55078C270.58 7.55078 270.042 7.73056 269.503 8.09012Z" fill="#FEFEFE"/>
<path d="M349.043 7.37082C348.684 7.5506 348.146 7.73038 347.787 7.91016C347.427 8.08994 346.889 8.4495 346.53 8.62928C344.734 9.88774 343.477 11.5058 342.4 12.944C341.502 14.2025 340.784 15.6407 340.066 17.079C339.348 18.5172 338.989 20.315 338.45 22.2926C337.732 25.8882 337.732 29.6636 338.27 33.9783C338.809 37.7537 339.707 41.7088 341.323 45.4842C342.759 49.0798 344.555 52.3159 346.889 55.1924C346.709 54.1137 346.709 53.035 346.709 51.9563C346.889 49.6192 347.427 47.282 348.146 45.1247C348.864 42.9673 349.582 40.9897 350.48 39.0121C351.198 37.2143 351.916 35.4165 352.634 33.6187C353.712 30.922 354.789 28.2253 355.866 25.5286C356.405 23.9106 356.944 22.1128 357.303 20.1352C357.662 18.1576 357.841 16.3598 357.841 14.7418C357.841 12.7642 357.303 11.1462 356.405 9.70796C355.507 8.26972 353.712 7.19104 351.916 7.01126C351.557 7.01126 351.377 7.01126 351.018 7.01126C350.3 7.19104 349.582 7.19104 349.043 7.37082Z" fill="#05C290"/>
<path d="M345.272 15.2813C345.093 15.2813 344.913 15.4611 344.554 15.4611C344.374 15.6409 344.195 15.8207 344.195 16.0005C343.477 17.2589 342.938 18.6972 342.399 20.3152C342.04 21.9332 341.681 23.5512 341.502 25.1693C341.322 26.7873 341.322 28.4053 341.322 30.0233C341.322 31.6413 341.502 33.2594 341.502 34.8774C341.502 35.0572 341.861 35.2369 342.04 35.2369C342.22 35.2369 342.399 35.0572 342.399 34.6976C342.399 34.338 342.399 33.7987 342.399 33.4391C342.399 30.0233 342.759 26.4277 343.656 23.1917C344.195 21.5737 344.913 19.9556 345.631 18.5174C345.811 18.1578 346.17 17.7983 346.35 17.4387C346.529 17.0791 346.709 16.8994 346.709 16.36C346.709 16.0005 346.529 15.6409 346.17 15.4611C345.99 15.2813 345.631 15.1016 345.272 15.1016C345.452 15.2813 345.272 15.2813 345.272 15.2813Z" fill="#FEFEFE"/>
<path d="M299.129 49.9789C296.794 50.1587 294.46 50.5183 292.306 51.0576C289.074 51.9565 285.662 53.5745 282.79 55.7319C281.174 56.8106 279.917 58.2488 279.019 59.5073C277.942 60.9455 277.224 62.7433 277.044 64.3614C276.865 66.1592 277.403 67.957 278.301 69.7548C278.84 70.6537 279.378 71.3728 279.917 71.9121C280.276 72.2717 280.635 72.4515 280.994 72.811C281.353 73.1706 281.892 73.3504 282.251 73.5302C282.79 73.8897 283.508 74.0695 284.406 74.2493C284.765 74.2493 285.303 74.4291 285.662 74.4291C286.022 74.4291 286.56 74.4291 286.919 74.4291C287.817 74.4291 288.535 74.0695 289.074 74.0695C289.972 73.8897 290.869 73.5302 291.767 73.1706C294.819 71.9121 297.513 69.9345 300.206 68.1367L300.924 67.5974L301.822 66.8783C302.361 66.5187 303.079 65.9794 303.617 65.6198C305.413 64.5411 307.388 63.6422 309.722 62.9231H309.902C310.261 62.9231 310.44 62.7433 310.799 62.7433C311.517 62.5636 312.236 62.3838 312.774 62.204C314.749 61.8444 316.724 61.6647 318.879 61.6647C319.059 61.6647 319.238 61.6647 319.418 61.6647C321.572 61.6647 323.727 62.0242 325.702 62.5636C326.779 62.9231 327.677 63.2827 328.575 63.822C328.934 64.0018 329.293 64.1816 329.652 64.3614C328.754 62.5636 327.497 60.7658 325.702 59.1477C324.086 57.7095 322.29 56.2713 319.956 55.0128C316.006 52.6756 311.158 51.2374 306.131 50.5183C304.515 50.3385 302.899 50.1587 301.283 50.1587C300.924 49.9789 300.026 49.9789 299.129 49.9789Z" fill="#05C290"/>
<path d="M295.717 53.9341C293.562 54.2936 291.408 55.1925 289.253 56.0914C288.176 56.6308 287.098 57.1701 286.021 57.7094C284.944 58.2488 284.046 58.9679 283.148 59.5072C282.251 60.0466 282.071 61.305 282.61 62.2039C283.328 63.2826 284.944 63.4624 285.662 62.3837C286.021 61.8444 286.56 61.4848 286.919 60.9455C287.098 60.7657 287.278 60.7657 287.278 60.5859C287.996 59.8668 288.714 59.3275 289.612 58.7881C290.33 58.2488 291.228 57.8892 291.946 57.3499C293.024 56.8105 294.101 56.451 295.178 55.9116C296.435 55.5521 297.512 55.0127 298.769 54.833C298.769 54.833 298.769 54.833 298.59 54.833C300.744 54.4734 302.719 54.2936 304.874 54.2936C304.874 54.2936 304.874 54.2936 305.053 54.2936C306.31 54.2936 307.567 54.4734 308.824 54.833C309.003 54.833 309.362 54.6532 309.362 54.4734C309.362 54.2936 309.183 53.9341 309.003 53.9341C306.849 53.3947 304.694 53.2149 302.54 53.2149C302.36 53.2149 302.36 53.2149 302.181 53.2149C300.206 53.3947 297.871 53.5745 295.717 53.9341ZM287.817 60.4061L287.637 60.5859C287.637 60.5859 287.637 60.4061 287.817 60.4061Z" fill="#FEFEFE"/>
<path d="M457.311 20.8545C450.129 21.7534 442.947 23.0119 435.226 24.8097C421.221 28.0457 406.858 32.72 392.314 38.8326C385.312 41.709 378.668 44.9451 372.384 48.3609C365.92 51.7767 359.277 55.5521 352.275 60.2264C340.245 67.9569 328.215 77.1257 315.647 88.0923C310.081 92.9464 304.515 97.9802 298.59 103.913C293.742 108.587 288.715 113.801 282.071 120.812C278.121 124.947 274.351 129.082 270.58 133.217C264.655 139.689 258.73 146.161 252.446 152.633C240.955 164.499 230.9 173.847 220.666 181.758L220.486 181.938L220.306 182.117C203.07 195.421 187.808 204.59 172.546 211.242H172.726C167.519 213.399 162.312 215.197 157.105 216.815C151.719 218.433 145.973 219.512 140.048 220.411C135.2 220.95 130.532 221.309 125.684 221.309H125.325C120.836 221.309 116.168 220.95 111.141 220.411C109.166 220.231 107.37 219.871 105.395 219.512C108.088 215.556 110.602 211.601 112.936 207.646C115.27 203.331 117.425 198.657 119.22 192.904C122.632 182.657 124.427 172.05 124.248 161.622C124.248 156.948 123.889 152.094 123.171 147.42C122.811 145.442 122.452 143.285 122.093 141.307C120.836 134.116 119.4 128.363 117.605 123.149C116.527 119.734 115.27 117.217 114.014 114.88C112.936 113.082 111.32 110.565 108.986 108.947C107.909 108.228 106.832 107.688 105.575 107.509C105.216 107.329 104.677 107.329 104.138 107.329C103.42 107.329 102.702 107.509 101.984 107.688C101.086 107.868 100.188 108.407 99.111 109.306C98.0337 110.205 97.1359 111.284 96.2382 112.183C94.0836 114.7 92.2881 117.756 91.0313 120.273C89.5949 122.97 87.979 126.026 86.363 129.801C85.2857 132.318 84.2084 134.835 82.772 138.431L82.5925 139.15C81.8743 140.948 80.9766 142.925 80.2584 144.723C76.6674 154.251 74.6923 163.78 74.3333 173.308C73.9742 183.376 75.7696 192.904 79.3606 201.713C75.0514 197.039 70.5627 192.365 65.5354 187.691C61.9444 184.275 58.1739 181.039 54.4033 177.623C49.9146 173.668 46.5032 170.971 43.2713 168.454C38.9621 165.218 34.8325 162.521 30.7029 160.364C26.2142 158.027 21.7255 156.409 17.4163 155.69C15.6208 155.33 13.8253 155.15 11.8503 155.15C11.4912 155.15 11.1321 155.15 10.773 155.15C8.9775 155.15 7.36156 155.51 5.74562 156.049C3.23194 156.948 1.2569 158.926 0.359157 161.263C-0.359038 163.42 -0.359038 165.937 0.179608 169.353C0.718255 172.589 1.79555 175.645 2.87284 178.522C3.23194 179.421 3.59104 180.499 3.95013 181.398L4.48878 183.016C4.84788 183.735 5.02743 184.634 5.38652 185.353C5.74562 186.252 6.10472 187.151 6.28427 188.05C7.72066 192.005 9.51614 195.96 11.4912 199.556C13.4662 203.152 15.8004 206.388 18.1345 209.444C20.4686 212.32 23.1619 215.017 26.0346 217.534C31.2415 222.029 37.5258 225.804 44.7077 228.86C51.1715 231.557 58.3534 233.535 66.6126 235.153C73.7946 236.411 81.3357 237.13 90.4926 237.669C90.8517 237.669 91.3904 237.669 91.7495 237.669H91.929C100.547 252.052 108.627 264.636 116.707 275.963C126.043 288.907 136.098 301.132 146.332 312.098C155.848 322.346 166.621 332.234 177.933 341.582C186.551 348.594 195.529 355.246 204.865 361.358C207.02 362.257 209.174 362.976 211.329 363.875C219.588 366.752 227.847 369.269 236.286 371.246C244.725 373.224 253.164 374.482 261.782 375.381C261.603 375.381 261.603 375.381 261.423 375.381C268.964 376.1 276.685 376.28 284.405 375.92C291.587 375.561 298.949 374.842 305.951 373.583C312.415 372.505 318.699 370.887 324.804 368.909C330.908 366.931 337.013 364.594 342.759 361.718C348.504 358.841 354.25 355.785 359.636 352.189C365.202 348.594 370.409 344.459 375.437 340.144C381.9 334.571 387.825 328.638 393.571 322.346C401.651 313.537 409.012 304.368 416.374 295.019C423.735 285.671 430.917 276.322 438.638 267.333C446.179 258.344 454.258 249.535 463.056 241.625C467.365 237.849 471.675 234.074 476.343 230.658C481.011 227.242 486.039 224.006 491.066 220.95C511.355 209.084 533.799 201.174 556.96 197.578C565.938 196.14 575.095 195.421 584.072 195.421C586.765 195.421 589.279 195.421 591.972 195.601C598.616 195.96 605.259 196.32 611.902 197.039C615.314 197.399 618.546 197.938 621.957 198.477C621.777 191.466 621.059 184.275 619.623 176.185C618.366 168.814 616.571 161.263 614.057 153.173C609.927 139.509 603.823 125.307 595.743 109.666C592.511 103.374 588.74 96.7218 584.79 89.8901C581.379 84.3169 577.788 78.7438 574.197 73.5301C566.476 62.3838 558.397 53.3947 549.778 45.844C545.29 41.8888 540.621 38.2932 535.415 35.0572C530.567 32.0009 525.001 29.3042 519.076 26.7873C507.584 22.113 494.118 19.7759 479.216 19.4163C478.318 19.4163 477.42 19.4163 476.522 19.4163C470.777 19.7759 464.313 20.1354 457.311 20.8545Z" fill="#5ED1B3"/>
<path d="M581.02 187.87C579.224 187.87 577.249 187.87 575.095 188.05C572.402 188.23 569.708 188.41 567.015 188.589C558.756 189.488 550.676 190.927 542.597 193.084C538.287 194.163 534.337 195.421 530.567 196.68C526.617 197.938 522.667 199.376 518.716 200.994C508.841 204.77 499.325 209.264 490.168 214.478C485.5 217.175 481.191 219.691 477.241 222.208C473.291 224.725 469.52 227.422 465.929 229.939C462.697 232.456 459.825 234.613 457.131 236.95C453.899 239.647 451.027 242.524 448.333 245.4C445.461 248.277 442.767 251.333 440.254 254.389C437.56 257.445 435.047 260.502 432.533 263.738C430.019 266.794 427.685 269.85 425.351 273.266L421.581 278.3L419.965 280.457C417.99 283.154 416.015 285.851 413.86 288.547C410.628 292.862 406.678 298.076 402.548 303.109C398.419 307.964 394.469 312.638 390.339 316.953C385.85 321.627 381.541 325.762 377.232 329.717C372.564 334.032 367.896 337.807 363.227 341.223C358.2 344.998 353.532 348.234 348.863 351.111C343.477 354.347 338.09 357.223 332.884 359.74C327.318 362.257 321.752 364.594 316.545 366.212C313.313 367.291 310.26 368.19 307.388 368.909C304.335 369.628 301.283 370.347 298.41 370.887C291.587 372.145 285.303 373.044 279.378 373.583C275.069 373.943 270.76 374.123 266.63 374.123C264.116 374.123 262.141 374.123 260.346 373.943C254.062 373.583 248.137 373.044 242.571 371.965C236.286 370.887 230.361 369.448 224.436 367.651C218.511 365.853 212.765 363.695 207.199 361.178C203.788 359.74 200.377 357.942 196.786 356.324C201.274 359.56 206.302 362.976 211.688 366.392C234.85 380.775 259.628 391.921 285.303 399.292C308.824 406.124 333.243 409.539 357.661 409.539C359.816 409.539 361.791 409.539 363.945 409.539C390.698 408.82 417.631 403.786 443.665 394.438C456.234 389.943 468.981 384.19 481.909 377.179C492.682 371.246 503.455 364.954 513.869 358.122C524.821 350.931 535.594 343.2 545.649 334.931C556.422 326.301 566.297 317.132 575.095 307.604C584.431 297.716 592.511 287.469 599.334 276.862C606.336 265.895 611.902 254.569 615.852 242.883C618.007 236.771 619.623 230.119 620.7 223.107C621.957 215.736 622.496 208.006 622.316 199.916C622.316 198.837 622.316 197.758 622.137 196.68C621.598 196.5 621.239 196.32 620.88 196.14C617.109 194.522 613.518 193.264 610.107 192.365C608.132 191.826 606.157 191.286 604.541 190.927C602.566 190.567 600.77 190.208 598.795 189.848C593.409 189.129 588.202 188.589 583.174 188.589C582.456 187.87 581.738 187.87 581.02 187.87Z" fill="#ECFBF7"/>
<path d="M578.686 188.05C577.07 199.197 574.556 210.343 571.145 220.95C562.706 247.558 549.778 272.727 533.978 295.739C519.255 316.953 501.839 336.369 482.268 353.268C462.697 370.168 440.972 384.73 417.271 395.157C405.601 400.371 393.571 404.506 381.182 407.382C380.105 407.562 379.027 407.922 377.95 408.101C400.214 406.303 422.119 401.449 443.665 393.719C450.847 391.202 458.208 388.146 465.57 384.73C481.011 376.46 495.554 366.572 509.2 355.246L508.841 355.426C512.971 352.01 516.921 348.414 520.871 344.819C537.21 329.537 551.933 312.458 564.681 294.121C564.681 294.3 564.501 294.3 564.501 294.48C566.835 291.244 568.99 287.828 571.145 284.592C582.815 266.434 592.69 247.198 600.231 226.883C602.206 221.489 603.822 216.096 605.079 210.523C606.336 205.129 607.234 199.556 607.772 193.983C607.772 193.084 607.952 192.365 607.952 191.466C606.695 191.107 605.438 190.927 604.361 190.567C602.386 190.208 600.59 189.848 598.615 189.489C593.409 188.769 588.202 188.23 582.815 188.23C582.097 188.23 581.379 188.23 580.661 188.23C580.301 188.05 579.404 188.05 578.686 188.05Z" fill="#A6EBD9"/>
<path d="M609.209 204.77C608.132 210.882 606.516 216.995 604.541 222.927C602.746 228.141 600.77 233.355 598.616 238.568C596.641 243.422 594.307 248.276 591.973 253.13C582.277 272.906 570.606 291.783 556.961 309.222C543.315 326.84 527.694 343.2 510.457 357.583C506.507 360.819 502.378 364.055 498.248 367.111C503.455 364.055 508.662 360.819 513.689 357.403C524.642 350.212 535.415 342.481 545.469 334.211C556.242 325.582 566.118 316.413 574.915 306.885C584.072 296.997 592.332 286.749 599.155 276.322C606.157 265.355 611.723 254.029 615.673 242.344C617.828 236.231 619.444 229.579 620.521 222.568C621.778 215.197 622.316 207.466 622.137 199.376C622.137 198.297 622.137 197.219 621.957 196.14C621.598 195.96 621.06 195.78 620.7 195.601H620.88C617.469 194.162 614.057 192.904 610.646 191.825C610.466 196.32 609.927 200.455 609.209 204.77Z" fill="#A6EBD9"/>
<path d="M575.095 188.05C572.402 188.23 569.709 188.41 567.015 188.589C558.756 189.488 550.676 190.927 542.597 193.084C538.467 194.163 534.517 195.241 530.567 196.68C529.49 197.039 528.412 197.399 527.335 197.758C526.617 202.792 525.719 207.826 524.642 212.86C522.128 224.186 518.896 235.512 514.767 246.479C509.56 260.142 503.096 273.446 495.375 286.03C488.912 296.817 481.55 307.065 473.47 316.773C457.491 336.009 438.817 352.909 417.99 366.572C397.342 380.055 374.539 390.303 350.659 396.236C338.629 399.292 326.24 401.09 314.031 401.809C308.824 402.168 303.617 402.168 298.59 401.989C316.365 406.124 334.5 408.461 352.814 408.82C358.38 408.461 363.946 407.921 369.512 407.022C386.389 404.146 402.908 398.932 418.528 391.741C418.528 391.741 418.528 391.741 418.708 391.741C418.708 391.741 418.708 391.741 418.528 391.741C439.536 382.213 458.927 369.448 476.702 354.706H476.523C477.6 353.808 478.498 352.909 479.575 352.01C499.146 335.11 516.562 315.874 531.465 294.66C531.465 294.66 531.465 294.66 531.465 294.84C545.29 275.064 556.781 253.85 565.04 231.197C570.247 217.175 574.018 202.612 576.172 187.87C575.634 188.05 575.454 188.05 575.095 188.05ZM476.343 354.886C476.343 354.886 476.164 354.886 476.343 354.886C476.164 354.886 476.343 354.886 476.343 354.886ZM418.708 391.561C418.708 391.741 418.528 391.741 418.708 391.561C418.528 391.741 418.708 391.741 418.708 391.561Z" fill="#A6EBD9"/>
<path d="M518.717 200.815C509.021 204.59 499.325 209.085 490.168 214.298C487.834 215.557 485.321 216.995 482.986 218.433C482.986 218.613 482.986 218.613 482.986 218.793C479.395 232.636 474.189 245.939 467.904 258.704C461.441 271.648 453.9 284.053 445.461 295.918C437.022 307.604 427.865 318.571 417.631 328.638C412.603 333.492 407.576 338.347 402.189 342.841C396.803 347.336 391.237 351.47 385.491 355.426C374.18 362.976 361.971 369.269 349.223 374.123C336.654 378.977 323.547 382.393 310.261 384.37C296.794 386.348 283.149 386.887 269.682 385.808C262.86 385.269 256.037 384.37 249.214 383.112C245.982 382.572 242.93 381.853 239.698 381.134C254.421 388.325 269.862 394.078 285.483 398.753C301.642 400.191 317.981 399.472 334.14 396.955C352.275 393.899 370.05 388.505 386.928 380.775C386.748 380.775 386.748 380.954 386.569 380.954C405.421 372.325 423.197 360.999 439.177 347.695C439.177 347.695 439.177 347.695 438.997 347.875C456.234 333.492 471.316 316.773 484.243 298.435C484.243 298.435 484.243 298.435 484.243 298.256C484.243 298.256 484.243 298.076 484.423 298.076C489.989 289.986 495.196 281.536 499.864 272.907C504.891 263.378 509.38 253.49 513.151 243.423L513.33 243.063C513.33 243.063 513.33 243.063 513.33 243.243C516.742 234.074 519.435 224.725 521.589 215.377C522.846 209.983 523.924 204.41 524.642 198.837C522.487 199.376 520.512 200.096 518.717 200.815Z" fill="#A6EBD9"/>
<path d="M477.061 222.028C473.291 224.545 469.52 227.062 465.75 229.759C465.75 229.759 465.75 229.759 465.929 229.759C462.877 232.096 460.004 234.433 457.131 236.77C454.079 239.467 451.027 242.164 448.333 245.22C445.461 248.096 442.767 251.153 440.254 254.209C437.56 257.265 435.047 260.321 432.533 263.558C430.019 266.614 427.685 269.85 425.351 273.086C421.581 278.12 417.81 283.154 414.04 288.187C410.269 293.041 406.678 297.896 402.728 302.75C398.778 307.424 394.828 312.098 390.519 316.593C386.389 320.907 382.08 325.222 377.412 329.357C372.923 333.492 368.255 337.267 363.407 340.863C358.739 344.279 353.891 347.695 348.863 350.751C343.656 353.807 338.45 356.863 332.884 359.38C327.677 361.897 322.111 364.055 316.545 365.852C313.492 366.931 310.44 367.83 307.388 368.549C304.335 369.268 301.462 369.987 298.41 370.527C292.126 371.785 285.842 372.684 279.378 373.223C273.094 373.763 266.81 373.943 260.346 373.583C254.421 373.223 248.496 372.684 242.571 371.605C236.466 370.527 230.361 369.089 224.436 367.291C218.511 365.493 212.765 363.336 207.199 360.819C203.608 359.201 200.197 357.583 196.786 355.965C201.633 359.38 206.661 362.796 211.688 365.852C217.254 369.268 222.82 372.504 228.566 375.561C228.745 375.561 228.925 375.561 229.104 375.561C240.955 379.156 253.164 381.493 265.553 382.752C265.373 382.752 265.373 382.752 265.194 382.752C280.814 384.19 296.615 383.83 312.056 381.314C327.856 378.617 343.297 373.943 358.02 367.291C373.282 360.279 387.646 351.29 400.573 340.503C400.573 340.503 400.573 340.503 400.394 340.683C409.012 333.492 417.092 325.582 424.453 317.312C431.994 308.862 438.997 300.053 445.64 290.884C457.49 273.985 467.366 255.827 474.547 236.411C476.523 231.197 478.139 225.983 479.575 220.59C478.677 220.95 477.959 221.489 477.061 222.028ZM358.379 367.111C358.379 367.111 358.2 367.111 358.2 367.291C358.2 367.111 358.379 367.111 358.379 367.111Z" fill="#A6EBD9"/>
<path d="M201.274 358.841C200.915 358.482 200.377 358.302 200.018 357.942C203.788 360.639 207.738 363.156 211.868 365.853C217.434 369.269 223.179 372.684 228.745 375.561H228.925C229.104 375.561 229.104 375.561 229.284 375.561C238.441 378.258 247.957 380.415 257.653 381.853C260.346 382.213 263.039 382.572 265.732 382.752H265.553H265.732C271.478 383.291 277.403 383.651 283.328 383.651C293.203 383.651 302.899 382.932 312.595 381.314C325.522 379.157 338.091 375.741 350.3 370.887C337.732 370.347 325.163 369.089 312.774 367.111C311.517 367.471 310.261 367.83 309.004 368.19C308.645 368.37 308.106 368.37 307.747 368.549C304.695 369.269 301.642 369.988 298.769 370.527C291.947 371.786 285.662 372.684 279.737 373.224C275.249 373.583 270.939 373.763 266.989 373.763C264.655 373.763 262.68 373.763 260.705 373.583C254.421 373.224 248.496 372.684 242.93 371.606C239.159 370.887 235.568 370.168 231.977 369.269C229.464 368.729 227.129 368.01 224.795 367.291C223.538 366.931 222.282 366.572 221.025 366.033C217.613 364.954 214.381 363.695 211.15 362.257C209.893 361.718 208.815 361.358 207.559 360.819C205.763 360.1 203.968 359.201 202.172 358.302C200.556 357.583 198.94 356.684 197.324 355.965C198.581 356.864 200.018 357.942 201.274 358.841Z" fill="#90EDD4"/>
<path d="M362.509 370.887C360.534 370.887 358.559 370.887 356.584 370.887C354.25 371.965 351.736 373.044 349.222 373.943C336.654 378.797 323.547 382.213 310.26 384.19C301.283 385.449 292.305 386.168 283.328 386.168C278.839 386.168 274.351 385.988 269.682 385.629C262.859 385.089 255.857 384.19 249.214 382.932L248.136 382.752C245.802 382.393 243.468 381.853 241.314 381.314C240.954 381.134 240.416 381.134 240.057 380.954C252.086 386.887 264.834 391.921 277.582 396.056C280.276 396.955 282.969 397.674 285.662 398.573C291.228 399.112 296.974 399.292 302.719 399.292C313.313 399.292 323.906 398.393 334.32 396.775C352.275 393.898 370.05 388.325 387.107 380.595C395.725 376.64 404.344 371.965 412.783 366.752C395.905 369.628 379.207 371.066 362.509 370.887Z" fill="#90EDD4"/>
<path d="M462.159 354.347C454.797 356.684 447.436 359.021 440.074 360.819C433.251 362.617 426.249 364.235 419.247 365.493L417.99 366.212C396.624 380.235 374 390.123 350.659 395.876C338.45 398.932 326.061 400.73 314.031 401.449C310.261 401.629 306.49 401.809 302.899 401.809C301.642 401.809 300.385 401.809 299.129 401.809C298.949 401.809 298.769 401.809 298.59 401.809C316.186 405.944 334.5 408.281 352.634 408.64C358.021 408.281 363.766 407.741 369.332 406.843C385.671 404.146 402.19 398.932 418.349 391.561C438.279 382.392 457.85 369.988 476.343 354.526C477.241 353.807 478.318 352.908 479.396 352.01C482.268 349.493 485.141 346.976 488.014 344.279C479.575 348.054 470.957 351.47 462.159 354.347Z" fill="#90EDD4"/>
<path d="M540.263 315.334C528.413 323.604 516.024 331.155 503.096 337.627C500.583 338.886 498.069 340.144 495.376 341.223C495.376 341.223 495.376 341.223 495.555 341.223C491.246 345.538 486.757 349.493 482.448 353.268C461.8 371.066 439.895 385.269 417.451 395.157C405.242 400.55 393.212 404.685 381.362 407.382L380.644 407.562C379.926 407.742 379.028 407.921 378.31 408.101C379.208 408.101 380.105 407.921 381.183 407.921C385.492 407.562 389.621 407.022 393.751 406.483H394.11C410.808 404.146 427.506 399.831 444.025 393.898C451.207 391.382 458.568 388.325 465.93 384.909C477.6 378.797 489.271 371.246 500.583 362.617C503.455 360.28 506.508 357.942 509.38 355.605L509.201 355.785C512.971 352.729 517.101 349.133 521.231 345.358C536.133 331.515 549.958 315.874 562.168 298.795C554.986 304.368 547.624 309.941 540.263 315.334Z" fill="#90EDD4"/>
<path d="M600.95 256.187C592.331 267.513 582.995 278.299 572.761 288.187C572.042 288.907 571.324 289.626 570.606 290.165C570.606 290.165 570.606 290.165 570.606 290.345C570.606 290.345 570.606 290.345 570.786 290.165C566.476 296.637 561.988 302.929 557.319 308.862C543.315 327.02 527.694 343.2 510.816 357.223C507.584 359.92 504.173 362.616 500.941 364.954C500.223 365.493 499.505 366.032 498.786 366.572C503.634 363.695 508.662 360.639 514.048 357.043C525.001 349.852 535.774 342.121 545.828 333.852C556.601 325.222 566.476 316.053 575.274 306.525C584.611 296.637 592.691 286.39 599.513 275.962C606.516 264.996 612.082 253.67 616.032 241.984L616.391 241.085L616.75 240.006C618.007 236.231 619.084 232.096 619.982 227.781C614.057 237.849 607.773 247.377 600.95 256.187Z" fill="#90EDD4"/>
<path d="M0.539058 161.622C-0.179137 163.78 -0.179137 166.297 0.359509 169.713C0.898156 172.949 1.97545 176.185 3.05274 178.881C3.41184 179.78 3.59139 180.499 3.95048 181.398L4.13003 181.758L4.66868 183.376C4.84823 183.915 5.02778 184.455 5.20733 185.174L5.38688 185.713C5.74597 186.612 6.10507 187.511 6.28462 188.41C7.72101 192.365 9.5165 196.32 11.6711 199.916C13.6461 203.331 15.8007 206.747 18.3144 209.804C20.6485 212.68 23.3418 215.377 26.2145 217.894C31.4214 222.388 37.7057 226.164 44.8876 229.22C51.3514 231.917 58.5333 233.894 66.7926 235.512C73.9745 236.771 81.5156 237.49 90.6725 238.029C91.0316 238.029 91.5703 238.029 91.9294 238.029H92.1089C100.727 252.411 108.807 264.816 116.887 276.322C126.223 289.266 136.278 301.491 146.512 312.458C156.208 322.706 166.801 332.593 178.113 341.942C184.038 346.796 190.322 351.65 196.786 356.145C200.377 357.942 203.968 359.56 207.2 360.999C212.766 363.336 218.511 365.493 224.436 367.471C230.182 369.269 236.287 370.707 242.571 371.786C248.137 372.684 254.241 373.404 260.346 373.763C262.321 373.943 264.296 373.943 266.63 373.943C270.58 373.943 274.89 373.763 279.378 373.404C285.303 372.864 291.408 372.145 298.41 370.707C301.283 370.168 304.336 369.448 307.388 368.729C309.004 368.37 310.62 367.83 312.415 367.291C311.697 367.111 310.979 367.111 310.081 366.931C292.665 363.875 275.428 359.56 258.551 353.808C241.853 348.055 225.693 341.223 210.072 332.953C202.172 328.818 194.272 324.324 186.731 319.649C179.011 314.795 171.649 309.941 164.288 304.548C157.285 299.334 150.283 293.761 143.819 287.828C137.355 281.895 131.071 275.603 125.146 268.951C119.221 262.299 113.475 255.288 108.089 248.277C106.473 246.299 105.036 244.142 103.6 242.164C102.523 240.726 101.445 239.108 100.368 237.669C98.9318 235.692 97.3158 233.714 95.3408 232.096C94.8022 231.737 94.2635 231.197 93.5453 230.838C93.0067 230.478 92.2885 230.119 91.7498 229.939C89.4157 229.04 86.902 228.321 84.3883 227.961C81.6951 227.422 79.0019 226.883 76.3086 226.343C71.1017 225.085 65.8948 223.826 60.8674 222.029C55.6605 220.231 50.4536 218.253 45.4263 215.916C40.5784 213.579 35.9102 211.062 31.4214 208.006C26.9327 204.949 22.8031 201.534 19.0326 197.758C15.6212 194.163 12.3893 190.208 9.69605 185.893C7.18236 180.499 5.02778 175.645 3.59139 170.432C2.87319 167.735 2.33455 165.038 1.97545 162.342C1.7959 161.443 1.7959 160.544 1.61635 159.645C1.25725 160.184 0.898156 160.724 0.539058 161.622Z" fill="#4FC7A7"/>
<path d="M95.3405 231.556C95.3405 231.377 95.1617 231.377 95.3405 231.556C95.1617 231.377 95.3405 231.377 95.3405 231.556Z" fill="#4FC7A7"/>
<path d="M317.981 267.333C316.545 267.333 314.929 267.513 313.492 267.693C310.979 268.052 308.645 268.771 306.49 269.67C305.413 270.209 304.515 270.749 303.258 271.468C302.181 272.187 301.283 273.086 300.385 273.985C300.026 274.344 300.026 274.884 300.026 275.243C298.949 276.861 297.872 278.3 296.794 279.378C293.562 282.974 289.971 286.39 286.56 289.626L284.405 291.783C279.737 296.278 275.248 300.592 271.298 305.446C268.426 308.862 265.014 313.716 264.116 318.93C263.757 321.087 263.937 323.424 264.835 325.402C265.732 327.38 267.348 329.357 269.682 330.975C270.939 331.874 272.555 332.773 273.812 333.312C275.248 334.031 276.864 334.751 278.839 335.29C283.149 336.728 287.817 337.627 292.665 337.987C294.46 338.166 296.256 338.166 298.051 338.166C300.924 338.166 303.976 337.987 307.029 337.627C311.697 337.088 316.365 336.009 321.033 334.571C330.37 331.694 338.988 327.2 346.35 321.447C350.3 318.391 353.711 314.975 356.045 311.199C358.739 307.064 360.175 302.75 360.355 298.435C360.534 293.94 359.098 289.446 356.225 285.491C354.609 283.154 352.454 280.996 349.402 278.659C346.709 276.682 343.657 274.704 339.886 272.906C336.475 271.288 332.884 269.85 329.113 268.951C325.522 267.872 321.752 267.333 317.981 267.333Z" fill="#5ED1B3"/>
<path d="M352.454 314.615C348.684 316.952 344.554 318.93 340.245 320.548C338.09 321.447 335.756 322.166 333.602 322.885C330.909 323.604 328.395 324.503 325.702 325.043C320.495 326.301 315.108 327.38 309.722 328.099C304.335 328.638 298.949 328.818 293.562 328.279C292.126 328.099 290.69 327.919 289.253 327.739C287.996 327.559 286.919 327.38 285.662 327.02C284.226 326.661 282.789 326.301 281.533 325.762C279.917 325.222 278.301 324.503 276.864 323.784C275.428 323.065 273.812 322.166 272.555 321.087C271.298 320.188 270.041 319.11 268.964 317.851C268.426 317.312 267.887 316.593 267.528 315.874C267.169 315.334 266.81 314.615 266.63 313.896C266.45 313.537 266.45 313.177 266.271 312.817C265.373 314.615 264.655 316.593 264.296 318.75C263.937 320.908 264.116 323.065 265.014 325.222C265.912 327.2 267.528 329.177 269.862 330.795C271.119 331.694 272.735 332.593 273.992 333.133C275.428 333.852 277.044 334.571 279.019 335.11C283.328 336.548 287.996 337.447 292.844 337.807C294.64 337.987 296.435 337.987 298.231 337.987C301.103 337.987 304.156 337.807 307.208 337.447C311.876 336.908 316.545 335.829 321.213 334.391C330.549 331.515 339.168 327.02 346.529 321.267C350.12 318.57 353.173 315.334 355.507 312.098C354.609 313.177 353.532 313.896 352.454 314.615Z" fill="#4FC7A7"/>
<path d="M298.051 277.041C296.794 278.659 295.358 280.277 293.921 281.715C292.485 283.333 290.869 284.772 289.253 286.21C286.021 289.266 282.61 292.143 279.378 295.019C276.146 298.075 272.914 301.132 270.221 304.547C268.964 306.165 267.707 307.963 266.63 309.761C266.091 310.66 265.553 311.559 265.194 312.458C264.655 313.536 264.116 314.615 263.757 315.694C263.398 316.772 263.219 317.671 263.039 318.75C262.859 319.829 263.039 320.907 263.039 321.806C263.219 322.705 263.398 323.604 263.757 324.503C264.116 325.402 264.475 326.121 265.014 327.02C267.169 330.436 270.58 332.773 273.992 334.571C278.301 336.728 282.789 337.807 287.458 338.706C290.151 339.245 293.024 339.425 295.896 339.425C298.769 339.425 301.462 339.245 304.335 339.065C307.028 338.706 309.722 338.346 312.235 337.807C314.929 337.267 317.622 336.548 320.136 335.829C324.624 334.391 329.113 332.773 333.422 330.616C337.731 328.638 341.681 326.121 345.452 323.245C349.402 320.368 352.993 317.132 356.225 313.357C356.404 313.177 356.404 312.997 356.225 312.637C356.045 312.458 355.686 312.458 355.507 312.637C352.634 315.874 349.582 318.75 345.991 321.267C340.425 325.042 334.32 328.099 328.036 330.436C328.036 330.436 328.036 330.436 328.215 330.436H328.036H327.856C327.856 330.436 327.856 330.436 328.036 330.436C324.624 331.694 321.213 332.773 317.622 333.672C313.313 334.75 309.183 335.649 304.694 336.189C302.181 336.368 299.487 336.548 296.974 336.368C294.46 336.368 291.767 336.009 289.253 335.649H289.433H289.253H289.074C289.074 335.649 289.074 335.649 289.253 335.649C286.739 335.29 284.226 334.571 281.712 333.852C280.096 333.312 278.301 332.773 276.685 332.054C274.53 331.155 272.555 329.896 270.76 328.458C269.682 327.559 268.785 326.66 267.887 325.582C267.348 324.863 266.989 323.964 266.63 323.065C266.45 322.346 266.271 321.626 266.091 320.728C266.091 319.829 266.091 319.11 266.091 318.211C266.271 316.772 266.81 315.514 267.348 314.076C268.785 311.019 270.58 308.143 272.735 305.626C276.864 300.772 281.533 296.637 286.201 292.322C288.535 290.165 290.869 288.008 293.024 285.67C295.178 283.333 297.333 280.996 299.128 278.479C299.487 278.12 299.308 277.58 298.949 277.221C298.769 277.041 298.41 276.861 298.231 276.861C298.41 276.681 298.051 276.861 298.051 277.041ZM273.273 305.626L273.094 305.806L273.273 305.626ZM267.887 314.076C267.707 314.076 267.707 314.256 267.887 314.076C267.707 314.256 267.707 314.076 267.887 314.076ZM276.864 331.874C277.044 331.874 277.223 332.054 277.223 332.054C277.223 332.054 277.044 332.054 276.864 331.874Z" fill="#15A881"/>
<path d="M349.762 101.036C354.609 106.789 366.46 104.991 376.155 96.7216C385.851 88.6315 389.801 77.3053 384.953 71.3726C380.105 65.6196 368.255 67.4174 358.559 75.6873C348.864 83.9572 344.914 95.2833 349.762 101.036Z" fill="#A6EBD9"/>
<path d="M314.031 122.43C316.903 125.307 323.188 123.689 327.856 118.835C332.704 113.981 334.14 107.868 331.267 104.992C328.395 102.115 322.11 103.733 317.442 108.587C312.774 113.261 311.158 119.554 314.031 122.43Z" fill="#A6EBD9"/>
<path d="M435.047 55.1927C435.765 58.7883 442.229 60.5861 449.59 59.3276C456.952 58.0692 462.518 54.114 461.979 50.5184C461.261 46.9228 454.797 45.125 447.436 46.3835C440.074 47.6419 434.508 51.5971 435.047 55.1927Z" fill="#A6EBD9"/>
<path d="M400.214 59.6868C401.83 62.743 406.319 63.2824 410.269 61.125C414.219 58.9677 416.194 54.8327 414.578 51.7764C412.962 48.7202 408.474 48.1808 404.524 50.3382C400.574 52.4956 398.598 56.6305 400.214 59.6868Z" fill="#A6EBD9"/>
<path d="M277.044 169.533C279.378 171.87 284.047 171.151 287.099 167.915C290.331 164.679 290.869 160.184 288.535 157.847C286.201 155.51 281.533 156.229 278.481 159.465C275.249 162.521 274.53 167.195 277.044 169.533Z" fill="#A6EBD9"/>
<path d="M298.769 140.408C299.847 141.487 302.001 141.127 303.438 139.689C304.874 138.251 305.233 136.093 304.156 135.015C303.079 133.936 300.924 134.296 299.488 135.734C298.051 137.172 297.692 139.329 298.769 140.408Z" fill="#A6EBD9"/>
<path d="M345.811 127.104C346.888 128.183 349.043 127.824 350.479 126.385C351.916 124.947 352.275 122.79 351.198 121.711C350.12 120.632 347.966 120.992 346.529 122.43C344.913 124.048 344.734 126.026 345.811 127.104Z" fill="#A6EBD9"/>
<path d="M402.548 78.2043C403.087 79.4628 404.882 79.8223 406.498 78.9234C408.114 78.2043 409.012 76.5863 408.473 75.3278C407.935 74.0694 406.139 73.7098 404.523 74.6087C402.907 75.5076 402.01 76.9458 402.548 78.2043Z" fill="#A6EBD9"/>
<path d="M427.327 213.399C431.995 213.399 435.766 206.927 435.945 198.657C436.125 190.387 432.354 183.735 427.686 183.735C423.018 183.735 419.247 190.207 419.067 198.477C418.888 206.567 422.658 213.219 427.327 213.399Z" fill="#15A881"/>
<path d="M594.666 164.139C598.616 161.802 598.616 154.072 594.306 147.06C590.177 140.049 583.534 136.273 579.404 138.61C575.454 140.948 575.454 148.678 579.763 155.69C584.072 162.701 590.716 166.476 594.666 164.139Z" fill="#15A881"/>
<path d="M431.815 195.061C430.378 195.421 428.224 193.803 427.326 191.466C426.249 189.129 426.608 186.791 428.224 186.432C429.66 186.072 431.815 187.69 432.713 190.027C433.61 192.365 433.251 194.702 431.815 195.061Z" fill="#FEFEFE"/>
<path d="M432.174 199.017C431.276 199.017 430.379 198.477 430.379 197.578C430.379 196.68 430.917 195.96 431.815 195.96C432.713 195.96 433.61 196.5 433.61 197.399C433.79 198.118 433.072 198.837 432.174 199.017Z" fill="#FEFEFE"/>
<path d="M589.818 147.06C588.741 148.139 586.047 147.6 584.072 145.802C582.097 144.004 581.379 141.847 582.456 140.948C583.534 139.869 586.227 140.408 588.202 142.206C590.177 143.824 590.895 145.982 589.818 147.06Z" fill="#FEFEFE"/>
<path d="M591.793 150.296C591.075 150.836 589.998 150.656 589.638 149.937C589.1 149.218 589.459 148.319 590.177 147.779C590.895 147.24 591.973 147.42 592.332 148.139C592.87 148.858 592.511 149.757 591.793 150.296Z" fill="#FEFEFE"/>
<path d="M512.073 155.51C511.355 155.69 510.816 156.409 510.996 157.128C511.355 158.746 511.535 160.364 511.714 161.982V161.802C511.714 161.982 511.714 161.982 511.714 162.162C511.894 163.78 511.714 165.398 511.535 166.836C511.355 167.915 510.996 168.993 510.457 170.072C510.098 170.971 509.56 171.69 509.021 172.409C508.482 173.128 507.764 173.668 507.046 174.207C506.328 174.746 505.43 175.286 504.532 175.645C503.634 176.005 502.557 176.185 501.48 176.364C500.403 176.364 499.325 176.364 498.248 176.185C497.171 176.005 496.093 175.645 495.016 175.106C493.939 174.567 493.041 173.848 491.964 173.128C490.887 172.229 489.989 171.331 489.271 170.252C488.373 168.993 487.655 167.735 487.116 166.297C486.757 165.578 485.859 165.398 485.32 165.757C484.961 165.937 484.782 166.117 484.602 166.477C484.423 166.836 484.602 167.196 484.602 167.555C485.32 169.173 486.218 170.791 487.296 172.229C488.193 173.488 489.45 174.746 490.707 175.645C493.041 177.443 495.734 178.522 498.607 178.881C501.3 179.241 503.994 178.702 506.507 177.443C509.021 176.185 510.996 174.207 512.253 171.69C513.33 169.713 513.869 167.555 514.048 165.398C514.407 162.342 513.869 159.465 513.151 156.409C512.971 155.869 512.432 155.33 511.894 155.33C512.253 155.51 512.253 155.51 512.073 155.51ZM489.271 169.713C489.271 169.892 489.45 169.892 489.271 169.713C489.45 169.892 489.271 169.892 489.271 169.713ZM495.196 174.926C495.196 174.926 495.375 174.926 495.375 175.106C495.375 175.106 495.375 174.926 495.196 174.926Z" fill="#15A881"/>
<path d="M535.055 145.083C534.696 145.083 534.337 145.442 534.157 145.622C533.978 145.802 533.798 146.341 533.978 146.701C534.337 147.779 534.696 148.678 534.876 149.757C535.055 150.656 535.235 151.555 535.235 152.454C535.235 153.712 535.235 155.15 535.055 156.409C534.876 157.487 534.516 158.386 534.157 159.285C533.798 160.184 533.26 160.903 532.541 161.802C532.003 162.521 531.285 163.061 530.566 163.6C529.848 164.139 529.13 164.499 528.232 164.858C527.514 165.038 526.616 165.218 525.719 165.398C524.821 165.398 524.103 165.398 523.205 165.218C522.307 165.038 521.589 164.679 520.691 164.319C519.793 163.78 518.896 163.24 518.178 162.701C517.28 161.802 516.382 160.903 515.664 159.825C514.946 158.746 514.227 157.667 513.689 156.409C513.33 155.69 512.432 155.51 511.893 155.869C511.175 156.229 510.996 156.948 511.355 157.667C512.791 160.903 514.946 163.96 517.998 165.937C519.255 166.656 520.512 167.375 521.948 167.735C522.666 167.915 523.384 168.094 524.103 168.094C524.821 168.094 525.539 168.094 526.257 168.094C528.95 167.915 531.464 166.476 533.439 164.679C534.517 163.78 535.235 162.521 535.953 161.263C536.312 160.544 536.671 159.825 536.851 159.285C537.21 158.566 537.389 157.667 537.389 156.768C537.748 155.15 537.569 153.532 537.569 152.094C537.389 150.116 536.851 148.319 536.132 146.341C535.953 145.981 535.953 145.622 535.594 145.442C535.414 145.262 535.055 145.262 534.876 145.262C535.235 145.083 535.235 145.083 535.055 145.083ZM518.537 162.881L518.716 163.061C518.716 162.881 518.537 162.881 518.537 162.881ZM521.05 164.499C521.05 164.499 521.23 164.499 521.05 164.499C521.23 164.499 521.05 164.499 521.05 164.499ZM528.771 164.679H528.591C528.591 164.858 528.771 164.679 528.771 164.679Z" fill="#15A881"/>
<path d="M476.523 23.5511C474.727 23.5511 472.752 23.5511 470.777 23.7309C469.879 23.7309 469.161 23.7309 468.263 23.9107C462.697 24.2703 456.772 24.9894 450.488 26.0681C444.024 27.3265 437.381 28.7648 430.558 30.9221C417.99 34.6975 405.062 39.7314 392.314 46.2035C386.21 49.2597 380.105 52.6755 374.718 55.9116C368.973 59.3274 363.227 63.2826 357.123 67.7771C352.634 71.1929 347.966 74.7885 343.477 78.7437C346.888 76.5863 350.12 74.4289 353.173 72.6311C359.995 68.4962 367.177 64.9006 374.539 61.4848C378.309 59.687 382.259 58.0689 386.03 56.6307C388.185 55.7318 390.339 55.0127 392.494 54.1138C394.469 53.3947 396.623 52.4958 398.598 51.7766C408.653 48.181 416.733 45.4843 424.274 43.5068C433.97 40.81 442.767 39.0122 451.206 37.9336C454.618 37.574 457.67 37.2144 460.543 37.0347C463.416 36.8549 466.109 36.8549 468.802 36.8549C471.675 36.8549 474.368 37.0347 477.241 37.2144C484.961 37.7538 492.502 39.0122 499.684 40.9898C507.225 43.1472 514.407 45.8439 521.051 49.2597C527.874 52.8553 534.337 56.9903 540.083 61.6645C542.776 63.8219 545.828 66.5186 548.881 69.3951C551.933 72.2716 554.985 75.3278 557.679 78.3841C563.245 84.4966 568.631 91.1485 573.658 98.1599C578.506 104.812 582.995 111.823 587.304 119.194C589.818 123.329 591.793 126.925 593.588 130.341C595.743 134.296 597.538 138.251 599.334 142.026C602.925 149.937 605.977 158.027 608.311 165.937C608.85 167.555 609.209 169.353 609.748 170.971C609.209 167.016 608.491 162.881 607.414 158.207C605.798 151.555 603.643 144.903 600.95 137.532C596.282 125.307 589.997 112.722 581.918 99.0588C578.686 93.4856 574.915 87.7327 570.786 81.7999C567.374 76.9459 563.783 72.0918 560.192 67.5973C552.472 57.8892 544.751 50.1586 536.492 43.6865C532.362 40.4505 527.694 37.3942 522.846 34.6975C518.178 32.1806 513.151 30.0232 507.585 28.2254C498.248 25.1692 487.834 23.5511 476.523 23.5511Z" fill="#4FC7A7"/>
<path d="M109.525 124.228C108.987 124.408 108.628 124.768 108.269 125.127C107.909 125.667 107.909 126.206 108.089 126.745C108.628 129.262 109.166 131.599 109.525 133.936C110.064 136.453 110.423 138.97 110.782 141.487C110.782 141.307 110.782 141.307 110.782 141.128C111.5 146.701 112.039 152.094 112.039 157.667C112.039 160.364 111.86 163.241 111.86 165.937C111.68 168.814 111.321 171.69 110.962 174.567V174.207C110.603 176.724 110.244 179.061 109.705 181.578C109.166 184.095 108.628 186.612 107.909 189.129C106.473 194.163 104.857 199.197 102.882 204.051C102.343 205.129 101.984 206.388 101.446 207.467C101.266 207.646 101.446 208.006 101.625 208.186C101.805 208.365 102.164 208.186 102.343 208.006C104.678 202.972 106.832 197.938 108.628 192.725C110.423 187.691 112.039 182.477 113.116 177.084C114.194 171.87 115.091 166.477 115.63 161.083C116.169 155.69 116.169 150.296 115.81 144.903C115.63 141.667 115.271 138.431 114.732 135.195C114.194 131.959 113.475 128.543 112.578 125.307C112.219 124.408 111.5 123.689 110.603 123.689C109.884 124.049 109.705 124.049 109.525 124.228Z" fill="#4FC7A7"/>
<path d="M102.702 137.712C101.984 137.891 101.625 138.611 101.804 139.33C102.343 141.487 102.702 143.644 103.061 145.802C103.779 152.094 103.6 158.566 102.702 164.858C102.343 167.016 101.984 169.353 101.625 171.51C101.625 171.87 101.804 172.229 102.163 172.409C102.522 172.589 102.881 172.229 103.061 171.87C104.138 166.476 105.036 161.083 105.395 155.51C105.575 152.633 105.754 149.937 105.575 147.06C105.575 145.622 105.395 144.363 105.216 142.925C105.036 141.487 104.856 140.049 104.497 138.611C104.318 138.071 103.779 137.532 103.241 137.532C102.881 137.532 102.702 137.712 102.702 137.712ZM102.881 145.442V145.622C102.881 145.622 102.881 145.622 102.881 145.442Z" fill="#4FC7A7"/>
<path d="M14.7234 163.42C14.1848 163.6 13.8257 163.96 13.4666 164.319C13.1075 164.858 13.1075 165.398 13.287 165.937C13.4666 166.656 14.0052 167.196 14.7234 167.375C16.5189 167.915 18.1349 168.634 19.7508 169.353C22.2645 170.432 24.7782 171.69 27.1123 172.949C29.626 174.207 31.9601 175.645 34.2942 177.083C36.6284 178.522 38.9625 179.96 41.2966 181.578C43.6308 183.196 45.9649 184.814 48.1195 186.612L47.94 186.432C51.3514 188.949 54.5833 191.646 57.6356 194.522C60.8675 197.399 64.0993 200.275 67.3312 203.152C67.5108 203.331 67.8699 203.331 68.0494 203.152C68.229 202.972 68.229 202.612 68.0494 202.432C64.2789 198.837 60.5084 195.421 56.7378 192.005C52.9673 188.589 49.0172 185.174 45.0672 181.938C41.1171 178.701 36.9875 175.645 32.8579 172.769C28.5487 169.892 24.06 167.375 19.5712 165.218C18.4939 164.679 17.4167 164.139 16.1598 163.6C16.1598 163.6 15.9803 163.6 15.8007 163.42C15.6212 163.42 15.4416 163.42 15.2621 163.42C15.0825 163.42 14.903 163.42 14.7234 163.42Z" fill="#4FC7A7"/>
</g>
<g clip-path="url(#clip1_5_28)">
<path d="M285.958 15.8126C284.923 15.9854 284.06 16.331 283.197 16.5038C282.334 16.8495 281.471 17.1951 280.436 17.7135C278.882 18.5776 277.501 19.6145 276.121 20.997C274.913 22.2067 274.05 23.5892 273.187 25.3174C272.496 26.6999 271.806 28.428 271.633 30.329C271.288 32.0572 271.288 33.7853 271.461 35.6863C271.633 37.4144 272.151 39.3154 272.841 41.0435C273.532 42.7717 274.74 44.4998 275.948 46.0552C276.638 46.9192 277.329 47.6105 278.192 48.3018C279.055 49.1658 280.09 49.6843 280.953 50.2027C282.507 51.2396 284.233 51.9309 286.476 52.6221C288.202 53.1406 290.101 53.4862 292.344 53.659C293.725 53.8318 294.933 53.8318 296.487 53.8318C299.248 53.8318 302.01 53.659 304.598 53.4862C306.497 53.3134 308.395 53.1406 310.294 53.1406C311.33 53.1406 312.192 52.9678 313.055 52.9678C313.401 52.9678 313.746 52.9678 314.091 52.9678C314.781 52.9678 315.644 52.9678 316.335 52.9678C317.543 52.9678 318.578 53.1406 319.787 53.3134C321.685 53.4862 323.411 53.659 325.31 54.1775C328.244 54.8687 331.005 55.7328 333.594 56.9425C334.975 57.6338 336.355 58.325 337.736 59.1891C338.944 59.8803 340.152 60.7444 341.188 61.6085C342.396 62.4726 343.604 63.5095 344.64 64.7192L344.812 64.892C344.812 64.892 344.812 64.892 344.812 64.7192C344.295 62.6454 343.777 60.226 343.087 57.8066C342.396 55.56 341.706 53.3134 340.67 51.0668C338.772 46.5736 336.528 42.426 333.594 38.4513C328.416 31.3659 321.167 25.1446 312.71 20.6514C308.395 18.4048 304.081 16.6766 299.593 15.8126C297.177 15.2941 294.933 15.1213 292.517 15.1213C290.273 15.1213 288.03 15.2941 285.958 15.8126Z" fill="#05C290"/>
<path d="M292.69 20.9969C291.654 20.9969 290.619 21.1697 289.583 21.5154C289.583 21.5154 289.583 21.5154 289.411 21.5154C288.893 21.5154 288.375 21.861 288.202 22.3794C287.857 22.8979 287.685 23.4163 287.857 23.9348C288.03 24.4532 288.202 24.9717 288.72 25.1445C288.893 25.1445 289.065 25.3173 289.238 25.3173C289.583 25.4901 289.756 25.4901 290.101 25.4901C291.136 25.6629 291.999 25.8357 293.035 25.8357C294.071 26.0085 295.279 26.0085 296.314 26.1814C298.558 26.527 300.802 26.8726 303.045 27.3911C305.634 28.0823 308.396 28.7736 310.985 29.8105C312.365 30.3289 313.746 30.8474 315.127 31.5386C316.335 32.0571 317.543 32.7483 318.751 33.4396C320.305 34.3037 321.685 35.1677 323.066 36.0318C324.447 36.8959 325.655 37.9328 326.863 39.1425C328.416 40.6978 329.797 42.2531 331.005 44.1541C331.178 44.4997 331.35 44.8454 331.523 45.191C331.696 45.3638 331.868 45.5366 332.041 45.3638C332.213 45.191 332.386 45.0182 332.213 44.8454C331.35 43.29 330.315 41.5619 329.279 40.1794C328.244 38.624 326.863 37.0687 325.655 35.6862C324.274 34.1308 322.721 32.7483 321.34 31.5386C319.787 30.1561 318.061 29.1192 316.335 27.9095C312.71 25.6629 308.913 23.9348 304.944 22.7251C302.873 22.0338 300.802 21.6882 298.731 21.3425C297.35 21.1697 296.142 20.9969 294.761 20.9969C294.071 20.9969 293.38 20.9969 292.69 20.9969ZM318.579 33.4396C318.579 33.4396 318.751 33.4396 318.751 33.6124C318.751 33.6124 318.579 33.6124 318.579 33.4396Z" fill="#FEFEFE"/>
<path d="M281.298 22.898C280.781 23.2436 280.608 23.762 280.608 24.2805C280.435 25.3174 281.298 26.5271 282.507 26.5271C283.024 26.5271 283.542 26.3543 284.06 26.0086C284.578 25.663 284.75 25.1446 284.75 24.6261C284.923 23.5892 284.06 22.3795 282.852 22.3795C282.334 22.3795 281.816 22.5523 281.298 22.898Z" fill="#FEFEFE"/>
<path d="M357.757 22.2066C357.412 22.3794 356.894 22.5522 356.549 22.725C356.204 22.8978 355.686 23.2435 355.341 23.4163C353.615 24.626 352.407 26.1813 351.371 27.5638C350.508 28.7735 349.818 30.156 349.128 31.5386C348.437 32.9211 348.092 34.6492 347.574 36.5502C346.884 40.0065 346.884 43.6356 347.402 47.7832C347.919 51.4123 348.782 55.2142 350.336 58.8433C351.717 62.2996 353.442 65.4103 355.686 68.1753C355.514 67.1384 355.514 66.1015 355.514 65.0646C355.686 62.818 356.204 60.5715 356.894 58.4977C357.585 56.4239 358.275 54.5229 359.138 52.622C359.828 50.8938 360.519 49.1657 361.209 47.4375C362.245 44.8453 363.28 42.2531 364.316 39.6609C364.834 38.1055 365.351 36.3774 365.696 34.4764C366.042 32.5755 366.214 30.8473 366.214 29.292C366.214 27.391 365.696 25.8357 364.834 24.4532C363.971 23.0706 362.245 22.0337 360.519 21.8609C360.174 21.8609 360.001 21.8609 359.656 21.8609C358.965 22.0337 358.275 22.0337 357.757 22.2066Z" fill="#05C290"/>
<path d="M354.133 29.8106C353.96 29.8106 353.787 29.9834 353.442 29.9834C353.27 30.1563 353.097 30.3291 353.097 30.5019C352.407 31.7116 351.889 33.0941 351.371 34.6494C351.026 36.2048 350.681 37.7601 350.508 39.3154C350.335 40.8708 350.335 42.4261 350.335 43.9814C350.335 45.5368 350.508 47.0921 350.508 48.6474C350.508 48.8203 350.853 48.9931 351.026 48.9931C351.198 48.9931 351.371 48.8203 351.371 48.4746C351.371 48.129 351.371 47.6106 351.371 47.2649C351.371 43.9814 351.716 40.5252 352.579 37.4145C353.097 35.8592 353.787 34.3038 354.478 32.9213C354.65 32.5757 354.995 32.23 355.168 31.8844C355.341 31.5388 355.513 31.366 355.513 30.8475C355.513 30.5019 355.341 30.1563 354.995 29.9834C354.823 29.8106 354.478 29.6378 354.133 29.6378C354.305 29.8106 354.133 29.8106 354.133 29.8106Z" fill="#FEFEFE"/>
<path d="M309.776 63.1639C307.533 63.3367 305.289 63.6823 303.218 64.2008C300.111 65.0648 296.832 66.6202 294.07 68.694C292.517 69.7308 291.309 71.1134 290.446 72.3231C289.41 73.7056 288.72 75.4337 288.548 76.9891C288.375 78.7172 288.893 80.4454 289.756 82.1735C290.273 83.0376 290.791 83.7288 291.309 84.2473C291.654 84.5929 291.999 84.7657 292.345 85.1114C292.69 85.457 293.208 85.6298 293.553 85.8026C294.07 86.1483 294.761 86.3211 295.624 86.4939C295.969 86.4939 296.487 86.6667 296.832 86.6667C297.177 86.6667 297.695 86.6667 298.04 86.6667C298.903 86.6667 299.593 86.3211 300.111 86.3211C300.974 86.1483 301.837 85.8026 302.7 85.457C305.634 84.2473 308.223 82.3463 310.812 80.6182L311.502 80.0997L312.365 79.4085C312.883 79.0628 313.573 78.5444 314.091 78.1988C315.817 77.1619 317.716 76.2978 319.959 75.6065H320.132C320.477 75.6065 320.65 75.4337 320.995 75.4337C321.685 75.2609 322.376 75.0881 322.893 74.9153C324.792 74.5697 326.69 74.3968 328.762 74.3968C328.934 74.3968 329.107 74.3968 329.279 74.3968C331.35 74.3968 333.422 74.7425 335.32 75.2609C336.356 75.6065 337.219 75.9522 338.082 76.4706C338.427 76.6434 338.772 76.8163 339.117 76.9891C338.254 75.2609 337.046 73.5328 335.32 71.9774C333.767 70.5949 332.041 69.2124 329.797 68.0027C326 65.7561 321.34 64.3736 316.507 63.6823C314.954 63.5095 313.401 63.3367 311.847 63.3367C311.502 63.1639 310.639 63.1639 309.776 63.1639Z" fill="#05C290"/>
<path d="M306.497 66.9658C304.426 67.3114 302.355 68.1755 300.284 69.0395C299.248 69.558 298.212 70.0764 297.177 70.5949C296.141 71.1133 295.278 71.8046 294.415 72.323C293.552 72.8415 293.38 74.0512 293.898 74.9152C294.588 75.9521 296.141 76.125 296.832 75.0881C297.177 74.5696 297.695 74.224 298.04 73.7055C298.212 73.5327 298.385 73.5327 298.385 73.3599C299.075 72.6687 299.766 72.1502 300.629 71.6318C301.319 71.1133 302.182 70.7677 302.872 70.2492C303.908 69.7308 304.944 69.3852 305.979 68.8667C307.187 68.5211 308.223 68.0027 309.431 67.8298C309.431 67.8298 309.431 67.8298 309.258 67.8298C311.329 67.4842 313.228 67.3114 315.299 67.3114C315.299 67.3114 315.299 67.3114 315.472 67.3114C316.68 67.3114 317.888 67.4842 319.096 67.8298C319.269 67.8298 319.614 67.657 319.614 67.4842C319.614 67.3114 319.441 66.9658 319.269 66.9658C317.198 66.4473 315.126 66.2745 313.055 66.2745C312.883 66.2745 312.883 66.2745 312.71 66.2745C310.812 66.4473 308.568 66.6201 306.497 66.9658ZM298.903 73.1871L298.73 73.3599C298.73 73.3599 298.73 73.1871 298.903 73.1871Z" fill="#FEFEFE"/>
<path d="M461.83 35.1679C454.926 36.0319 448.022 37.2416 440.601 38.9698C427.139 42.0805 413.331 46.5736 399.351 52.4493C392.62 55.2144 386.234 58.325 380.194 61.6085C373.98 64.892 367.594 68.5211 360.863 73.0143C349.3 80.4453 337.736 89.2589 325.654 99.8006C320.304 104.467 314.954 109.305 309.258 115.008C304.598 119.501 299.766 124.513 293.38 131.253C289.583 135.228 285.958 139.202 282.334 143.177C276.638 149.398 270.943 155.62 264.902 161.841C253.856 173.247 244.191 182.233 234.353 189.837L234.18 190.01L234.008 190.183C217.439 202.971 202.769 211.785 188.098 218.179H188.271C183.266 220.253 178.261 221.981 173.255 223.536C168.078 225.091 162.555 226.128 156.859 226.992C152.199 227.511 147.712 227.856 143.052 227.856H142.707C138.392 227.856 133.904 227.511 129.072 226.992C127.173 226.819 125.447 226.474 123.549 226.128C126.138 222.326 128.554 218.524 130.798 214.722C133.041 210.575 135.112 206.082 136.838 200.552C140.118 190.701 141.844 180.505 141.671 170.482C141.671 165.989 141.326 161.323 140.635 156.829C140.29 154.929 139.945 152.855 139.6 150.954C138.392 144.041 137.011 138.511 135.285 133.499C134.249 130.216 133.041 127.797 131.833 125.55C130.798 123.822 129.244 121.402 127.001 119.847C125.965 119.156 124.929 118.637 123.721 118.465C123.376 118.292 122.858 118.292 122.341 118.292C121.65 118.292 120.96 118.465 120.269 118.637C119.407 118.81 118.544 119.329 117.508 120.193C116.472 121.057 115.609 122.094 114.747 122.958C112.675 125.377 110.95 128.315 109.741 130.734C108.361 133.327 106.807 136.265 105.254 139.894C104.218 142.313 103.183 144.732 101.802 148.189L101.63 148.88C100.939 150.608 100.076 152.509 99.3858 154.237C95.934 163.396 94.0355 172.556 93.6903 181.715C93.3451 191.392 95.071 200.552 98.5229 209.02C94.3806 204.526 90.0658 200.033 85.2332 195.54C81.7814 192.257 78.157 189.146 74.5325 185.862C70.2177 182.06 66.9385 179.468 63.8318 177.049C59.6896 173.938 55.72 171.346 51.7503 169.272C47.4355 167.026 43.1207 165.47 38.9785 164.779C37.2526 164.433 35.5267 164.261 33.6281 164.261C33.283 164.261 32.9378 164.261 32.5926 164.261C30.8667 164.261 29.3133 164.606 27.76 165.125C25.3437 165.989 23.4452 167.89 22.5822 170.136C21.8919 172.21 21.8919 174.629 22.4096 177.913C22.9274 181.024 23.963 183.961 24.9985 186.726C25.3437 187.591 25.6889 188.627 26.0341 189.491L26.5519 191.047C26.897 191.738 27.0696 192.602 27.4148 193.293C27.76 194.157 28.1052 195.022 28.2778 195.886C29.6585 199.688 31.3844 203.489 33.283 206.946C35.1815 210.402 37.4252 213.513 39.6689 216.451C41.9126 219.216 44.5015 221.808 47.2629 224.227C52.2681 228.548 58.3088 232.177 65.2125 235.115C71.4259 237.707 78.3296 239.608 86.2688 241.163C93.1725 242.373 100.421 243.064 109.224 243.583C109.569 243.583 110.087 243.583 110.432 243.583H110.604C118.889 257.408 126.655 269.505 134.422 280.392C143.397 292.835 153.062 304.586 162.9 315.128C172.047 324.978 182.403 334.483 193.276 343.469C201.56 350.209 210.19 356.603 219.165 362.479C221.236 363.343 223.307 364.034 225.378 364.899C233.317 367.664 241.257 370.083 249.369 371.984C257.48 373.885 265.592 375.095 273.877 375.959C273.704 375.959 273.704 375.959 273.532 375.959C280.78 376.65 288.202 376.823 295.623 376.477C302.527 376.132 309.603 375.44 316.334 374.231C322.548 373.194 328.588 371.638 334.457 369.737C340.325 367.836 346.193 365.59 351.716 362.825C357.239 360.06 362.762 357.122 367.94 353.666C373.29 350.209 378.295 346.235 383.128 342.087C389.341 336.73 395.036 331.027 400.559 324.978C408.326 316.51 415.402 307.697 422.479 298.71C429.555 289.724 436.459 280.738 443.88 272.097C451.129 263.456 458.896 254.988 467.353 247.384C471.495 243.755 475.637 240.126 480.124 236.843C484.612 233.559 489.444 230.449 494.277 227.511C513.78 216.105 535.354 208.501 557.618 205.045C566.248 203.662 575.05 202.971 583.68 202.971C586.269 202.971 588.685 202.971 591.274 203.144C597.66 203.489 604.046 203.835 610.432 204.526C613.711 204.872 616.818 205.39 620.097 205.909C619.924 199.169 619.234 192.257 617.853 184.48C616.645 177.394 614.919 170.136 612.503 162.36C608.533 149.226 602.665 135.573 594.898 120.538C591.792 114.49 588.167 108.096 584.37 101.529C581.091 96.1715 577.639 90.8142 574.187 85.8026C566.766 75.0881 558.999 66.4473 550.715 59.1891C546.4 55.3872 541.913 51.9309 536.907 48.8202C532.247 45.8824 526.897 43.2902 521.201 40.8707C510.156 36.3776 497.211 34.131 482.886 33.7853C482.023 33.7853 481.16 33.7853 480.297 33.7853C474.774 34.131 468.561 34.4766 461.83 35.1679Z" fill="#5ED1B3"/>
<path d="M580.746 195.713C579.02 195.713 577.121 195.713 575.05 195.886C572.461 196.058 569.873 196.231 567.284 196.404C559.344 197.268 551.578 198.651 543.811 200.724C539.669 201.761 535.872 202.971 532.247 204.181C528.45 205.39 524.653 206.773 520.856 208.328C511.364 211.957 502.216 216.278 493.414 221.289C488.927 223.882 484.785 226.301 480.988 228.72C477.191 231.14 473.566 233.732 470.114 236.152C467.008 238.571 464.246 240.645 461.657 242.891C458.551 245.484 455.789 248.249 453.2 251.014C450.439 253.779 447.85 256.716 445.434 259.654C442.845 262.592 440.428 265.53 438.012 268.641C435.596 271.579 433.352 274.516 431.108 277.8L427.484 282.639L425.931 284.712C424.032 287.305 422.134 289.897 420.062 292.489C416.956 296.637 413.159 301.648 409.189 306.487C405.22 311.153 401.422 315.646 397.453 319.794C393.138 324.287 388.996 328.262 384.854 332.064C380.366 336.211 375.879 339.84 371.391 343.124C366.559 346.753 362.071 349.864 357.584 352.629C352.406 355.739 347.228 358.504 342.223 360.924C336.873 363.343 331.523 365.59 326.517 367.145C323.411 368.182 320.477 369.046 317.715 369.737C314.781 370.429 311.847 371.12 309.086 371.638C302.527 372.848 296.486 373.712 290.791 374.231C286.649 374.576 282.506 374.749 278.537 374.749C276.12 374.749 274.222 374.749 272.496 374.576C266.455 374.231 260.76 373.712 255.409 372.675C249.369 371.638 243.673 370.256 237.978 368.528C232.282 366.8 226.759 364.726 221.409 362.306C218.129 360.924 214.85 359.196 211.398 357.64C215.713 360.751 220.546 364.034 225.723 367.318C247.988 381.143 271.806 391.858 296.486 398.943C319.096 405.51 342.569 408.794 366.041 408.794C368.112 408.794 370.011 408.794 372.082 408.794C397.798 408.102 423.687 403.263 448.713 394.277C460.794 389.957 473.048 384.427 485.475 377.687C495.83 371.984 506.186 365.935 516.196 359.368C526.725 352.456 537.08 345.025 546.745 337.075C557.101 328.78 566.593 319.967 575.05 310.808C584.025 301.303 591.792 291.452 598.35 281.256C605.081 270.714 610.432 259.827 614.229 248.594C616.3 242.718 617.853 236.324 618.889 229.585C620.097 222.499 620.615 215.068 620.442 207.291C620.442 206.255 620.442 205.218 620.27 204.181C619.752 204.008 619.407 203.835 619.061 203.662C615.437 202.107 611.985 200.897 608.706 200.033C606.807 199.515 604.909 198.996 603.356 198.651C601.457 198.305 599.731 197.959 597.833 197.614C592.655 196.923 587.65 196.404 582.817 196.404C582.127 195.713 581.436 195.713 580.746 195.713Z" fill="#ECFBF7"/>
<path d="M578.502 195.886C576.949 206.6 574.532 217.315 571.253 227.511C563.141 253.088 550.715 277.282 535.526 299.402C521.374 319.794 504.632 338.458 485.82 354.703C467.007 370.947 446.124 384.945 423.341 394.969C412.123 399.98 400.559 403.955 388.65 406.72C387.615 406.893 386.579 407.238 385.544 407.411C406.945 405.683 428.001 401.017 448.713 393.586C455.616 391.167 462.693 388.229 469.769 384.945C484.612 376.996 498.592 367.491 511.709 356.604L511.364 356.776C515.333 353.493 519.13 350.037 522.927 346.58C538.633 331.891 552.786 315.474 565.04 297.847C565.04 298.019 564.867 298.019 564.867 298.192C567.111 295.082 569.182 291.798 571.253 288.687C582.472 271.233 591.964 252.742 599.213 233.214C601.112 228.029 602.665 222.845 603.873 217.488C605.081 212.303 605.944 206.946 606.462 201.589C606.462 200.725 606.635 200.033 606.635 199.169C605.426 198.824 604.218 198.651 603.183 198.305C601.284 197.96 599.558 197.614 597.66 197.268C592.655 196.577 587.649 196.059 582.472 196.059C581.781 196.059 581.091 196.059 580.401 196.059C580.055 195.886 579.192 195.886 578.502 195.886Z" fill="#A6EBD9"/>
<path d="M607.843 211.957C606.808 217.833 605.254 223.709 603.356 229.412C601.63 234.423 599.731 239.435 597.66 244.446C595.762 249.112 593.518 253.778 591.274 258.444C581.954 277.454 570.736 295.6 557.619 312.363C544.502 329.298 529.486 345.025 512.917 358.85C509.12 361.96 505.151 365.071 501.181 368.009C506.186 365.071 511.191 361.96 516.024 358.677C526.552 351.764 536.908 344.333 546.573 336.384C556.928 328.089 566.421 319.275 574.878 310.116C583.68 300.611 591.62 290.761 598.178 280.738C604.909 270.196 610.259 259.308 614.056 248.076C616.128 242.2 617.681 235.806 618.716 229.066C619.925 221.98 620.442 214.549 620.27 206.773C620.27 205.736 620.27 204.699 620.097 203.662C619.752 203.489 619.234 203.316 618.889 203.144H619.062C615.782 201.761 612.503 200.551 609.224 199.515C609.051 203.835 608.534 207.81 607.843 211.957Z" fill="#A6EBD9"/>
<path d="M575.051 195.886C572.462 196.058 569.873 196.231 567.284 196.404C559.345 197.268 551.578 198.651 543.811 200.724C539.842 201.761 536.045 202.798 532.248 204.181C531.212 204.526 530.177 204.872 529.141 205.218C528.451 210.056 527.588 214.895 526.552 219.734C524.136 230.621 521.029 241.509 517.06 252.05C512.054 265.184 505.841 277.973 498.42 290.07C492.206 300.439 485.13 310.289 477.363 319.621C462.003 338.112 444.053 354.357 424.032 367.491C404.184 380.452 382.265 390.302 359.31 396.005C347.746 398.943 335.838 400.671 324.101 401.362C319.096 401.708 314.091 401.708 309.258 401.535C326.345 405.51 343.777 407.757 361.381 408.102C366.732 407.757 372.082 407.238 377.432 406.374C393.656 403.609 409.535 398.597 424.55 391.685C424.55 391.685 424.55 391.685 424.723 391.685C424.723 391.685 424.723 391.685 424.55 391.685C444.743 382.526 463.383 370.256 480.47 356.085H480.297C481.333 355.221 482.196 354.357 483.231 353.493C502.044 337.248 518.786 318.757 533.111 298.365C533.111 298.365 533.111 298.365 533.111 298.538C546.4 279.528 557.446 259.136 565.385 237.361C570.391 223.882 574.015 209.884 576.086 195.713C575.568 195.886 575.396 195.886 575.051 195.886ZM480.125 356.258C480.125 356.258 479.952 356.258 480.125 356.258C479.952 356.258 480.125 356.258 480.125 356.258ZM424.723 391.512C424.723 391.685 424.55 391.685 424.723 391.512C424.55 391.685 424.723 391.685 424.723 391.512Z" fill="#A6EBD9"/>
<path d="M520.857 208.156C511.537 211.785 502.217 216.105 493.414 221.117C491.171 222.326 488.754 223.709 486.511 225.091C486.511 225.264 486.511 225.264 486.511 225.437C483.059 238.744 478.054 251.532 472.013 263.802C465.8 276.245 458.551 288.169 450.439 299.575C442.327 310.808 433.525 321.349 423.687 331.027C418.854 335.693 414.022 340.359 408.844 344.679C403.666 349 398.316 352.974 392.793 356.776C381.92 364.035 370.183 370.083 357.929 374.749C345.848 379.415 333.249 382.699 320.477 384.6C307.532 386.501 294.415 387.019 281.471 385.982C274.912 385.464 268.354 384.6 261.795 383.39C258.689 382.871 255.755 382.18 252.648 381.489C266.801 388.401 281.644 393.932 296.659 398.425C312.192 399.807 327.898 399.116 343.432 396.697C360.863 393.759 377.95 388.574 394.174 381.143C394.001 381.143 394.001 381.316 393.829 381.316C411.951 373.021 429.037 362.134 444.398 349.345C444.398 349.345 444.398 349.345 444.226 349.518C460.794 335.693 475.292 319.621 487.719 301.994C487.719 301.994 487.719 301.994 487.719 301.821C487.719 301.821 487.719 301.648 487.891 301.648C493.242 293.872 498.247 285.749 502.734 277.454C507.567 268.295 511.882 258.79 515.506 249.113L515.679 248.767C515.679 248.767 515.679 248.767 515.679 248.94C518.958 240.126 521.547 231.14 523.618 222.154C524.826 216.969 525.862 211.612 526.552 206.255C524.481 206.773 522.582 207.464 520.857 208.156Z" fill="#A6EBD9"/>
<path d="M480.815 228.547C477.191 230.967 473.566 233.386 469.942 235.978C469.942 235.978 469.942 235.978 470.114 235.978C467.18 238.225 464.419 240.472 461.657 242.718C458.723 245.31 455.789 247.903 453.2 250.84C450.439 253.606 447.85 256.543 445.434 259.481C442.845 262.419 440.428 265.357 438.012 268.468C435.596 271.405 433.352 274.516 431.108 277.627C427.484 282.466 423.86 287.304 420.235 292.143C416.611 296.809 413.159 301.475 409.362 306.141C405.565 310.634 401.768 315.128 397.625 319.448C393.656 323.596 389.514 327.743 385.026 331.718C380.711 335.693 376.224 339.322 371.564 342.778C367.077 346.061 362.417 349.345 357.584 352.283C352.579 355.221 347.574 358.158 342.223 360.578C337.218 362.997 331.868 365.071 326.517 366.799C323.583 367.836 320.649 368.7 317.715 369.391C314.781 370.083 312.02 370.774 309.086 371.292C303.045 372.502 297.004 373.366 290.791 373.885C284.75 374.403 278.709 374.576 272.496 374.23C266.8 373.885 261.105 373.366 255.409 372.329C249.541 371.292 243.673 369.91 237.978 368.182C232.282 366.454 226.759 364.38 221.409 361.96C217.957 360.405 214.678 358.85 211.398 357.294C216.058 360.578 220.891 363.861 225.723 366.799C231.074 370.083 236.424 373.193 241.947 376.131C242.12 376.131 242.292 376.131 242.465 376.131C253.856 379.588 265.592 381.834 277.501 383.044C277.329 383.044 277.329 383.044 277.156 383.044C292.172 384.426 307.36 384.081 322.203 381.661C337.391 379.069 352.234 374.576 366.386 368.182C381.057 361.442 394.864 352.801 407.291 342.432C407.291 342.432 407.291 342.432 407.118 342.605C415.402 335.693 423.169 328.089 430.245 320.139C437.494 312.017 444.225 303.549 450.611 294.735C462.002 278.491 471.495 261.037 478.399 242.373C480.297 237.361 481.851 232.349 483.231 227.165C482.368 227.51 481.678 228.029 480.815 228.547ZM366.731 368.009C366.731 368.009 366.559 368.009 366.559 368.182C366.559 368.009 366.731 368.009 366.731 368.009Z" fill="#A6EBD9"/>
<path d="M215.713 360.06C215.368 359.714 214.85 359.541 214.505 359.196C218.13 361.788 221.927 364.207 225.896 366.799C231.247 370.083 236.77 373.366 242.12 376.131H242.292C242.465 376.131 242.465 376.131 242.638 376.131C251.44 378.724 260.587 380.797 269.907 382.18C272.496 382.526 275.085 382.871 277.674 383.044H277.501H277.674C283.197 383.563 288.892 383.908 294.588 383.908C304.081 383.908 313.401 383.217 322.721 381.662C335.147 379.588 347.229 376.304 358.965 371.638C346.883 371.12 334.802 369.91 322.893 368.009C321.685 368.355 320.477 368.7 319.269 369.046C318.923 369.219 318.406 369.219 318.061 369.392C315.126 370.083 312.192 370.774 309.431 371.293C302.872 372.502 296.832 373.366 291.136 373.885C286.821 374.231 282.679 374.403 278.882 374.403C276.638 374.403 274.74 374.403 272.841 374.231C266.801 373.885 261.105 373.366 255.755 372.33C252.13 371.638 248.678 370.947 245.227 370.083C242.81 369.565 240.567 368.873 238.323 368.182C237.115 367.836 235.907 367.491 234.698 366.972C231.419 365.935 228.312 364.726 225.206 363.343C223.998 362.825 222.962 362.479 221.754 361.961C220.028 361.269 218.302 360.405 216.576 359.541C215.023 358.85 213.47 357.986 211.916 357.295C213.124 358.159 214.505 359.196 215.713 360.06Z" fill="#90EDD4"/>
<path d="M370.701 371.638C368.802 371.638 366.904 371.638 365.005 371.638C362.762 372.675 360.345 373.712 357.929 374.576C345.848 379.242 333.248 382.526 320.477 384.427C311.847 385.636 303.217 386.328 294.588 386.328C290.273 386.328 285.958 386.155 281.471 385.809C274.912 385.291 268.181 384.427 261.795 383.217L260.76 383.044C258.516 382.698 256.272 382.18 254.201 381.662C253.856 381.489 253.338 381.489 252.993 381.316C264.557 387.019 276.811 391.858 289.065 395.832C291.654 396.696 294.243 397.388 296.831 398.252C302.182 398.77 307.705 398.943 313.228 398.943C323.411 398.943 333.594 398.079 343.604 396.524C360.863 393.759 377.95 388.401 394.346 380.97C402.631 377.168 410.915 372.675 419.027 367.664C402.803 370.429 386.752 371.811 370.701 371.638Z" fill="#90EDD4"/>
<path d="M466.49 355.739C459.414 357.986 452.337 360.232 445.261 361.961C438.703 363.689 431.972 365.244 425.24 366.454L424.032 367.145C403.494 380.625 381.747 390.129 359.31 395.659C347.574 398.597 335.665 400.325 324.101 401.017C320.477 401.19 316.852 401.362 313.401 401.362C312.192 401.362 310.984 401.362 309.776 401.362C309.604 401.362 309.431 401.362 309.258 401.362C326.172 405.337 343.777 407.584 361.209 407.929C366.386 407.584 371.909 407.065 377.26 406.201C392.966 403.609 408.844 398.597 424.377 391.512C443.535 382.698 462.348 370.774 480.125 355.912C480.988 355.221 482.023 354.357 483.059 353.493C485.82 351.073 488.582 348.654 491.343 346.062C483.231 349.691 474.947 352.974 466.49 355.739Z" fill="#90EDD4"/>
<path d="M541.568 318.239C530.177 326.188 518.268 333.446 505.841 339.668C503.425 340.877 501.009 342.087 498.42 343.124C498.42 343.124 498.42 343.124 498.592 343.124C494.45 347.271 490.135 351.073 485.993 354.702C466.145 371.811 445.089 385.464 423.515 394.968C411.779 400.153 400.215 404.128 388.824 406.72L388.133 406.893C387.443 407.065 386.58 407.238 385.89 407.411C386.753 407.411 387.616 407.238 388.651 407.238C392.793 406.893 396.763 406.374 400.733 405.856H401.078C417.129 403.609 433.18 399.462 449.058 393.759C455.962 391.339 463.038 388.401 470.115 385.118C481.333 379.242 492.552 371.984 503.425 363.689C506.187 361.442 509.121 359.196 511.882 356.949L511.709 357.122C515.334 354.184 519.304 350.728 523.273 347.099C537.598 333.792 550.888 318.757 562.624 302.34C555.721 307.697 548.644 313.054 541.568 318.239Z" fill="#90EDD4"/>
<path d="M599.904 261.382C591.619 272.269 582.644 282.638 572.807 292.143C572.116 292.834 571.426 293.526 570.735 294.044C570.735 294.044 570.735 294.044 570.735 294.217C570.735 294.217 570.735 294.217 570.908 294.044C566.766 300.265 562.451 306.314 557.964 312.017C544.501 329.471 529.486 345.025 513.262 358.504C510.156 361.096 506.876 363.689 503.77 365.935C503.079 366.454 502.389 366.972 501.699 367.49C506.359 364.725 511.191 361.788 516.369 358.331C526.897 351.419 537.253 343.988 546.918 336.038C557.273 327.743 566.766 318.929 575.223 309.77C584.198 300.265 591.964 290.415 598.523 280.392C605.254 269.85 610.604 258.963 614.401 247.73L614.747 246.866L615.092 245.829C616.3 242.2 617.335 238.225 618.198 234.077C612.503 243.755 606.462 252.914 599.904 261.382Z" fill="#90EDD4"/>
<path d="M22.7552 170.482C22.0648 172.556 22.0648 174.975 22.5826 178.259C23.1004 181.369 24.1359 184.48 25.1715 187.072C25.5166 187.936 25.6892 188.627 26.0344 189.492L26.207 189.837L26.7248 191.392C26.8974 191.911 27.07 192.429 27.2426 193.121L27.4152 193.639C27.7603 194.503 28.1055 195.367 28.2781 196.231C29.6589 200.033 31.3848 203.835 33.4559 207.291C35.3544 210.575 37.4255 213.858 39.8418 216.796C42.0855 219.561 44.6744 222.154 47.4359 224.573C52.4411 228.893 58.4818 232.522 65.3855 235.46C71.5988 238.052 78.5025 239.953 86.4418 241.509C93.3454 242.718 100.594 243.41 109.397 243.928C109.742 243.928 110.26 243.928 110.605 243.928H110.777C119.062 257.753 126.828 269.678 134.595 280.738C143.57 293.18 153.235 304.932 163.073 315.474C172.393 325.324 182.576 334.829 193.449 343.815C199.145 348.481 205.185 353.147 211.399 357.468C214.85 359.196 218.302 360.751 221.409 362.134C226.759 364.38 232.282 366.454 237.978 368.355C243.501 370.083 249.369 371.466 255.41 372.502C260.76 373.366 266.628 374.058 272.496 374.403C274.395 374.576 276.293 374.576 278.537 374.576C282.334 374.576 286.476 374.403 290.791 374.058C296.487 373.539 302.355 372.848 309.086 371.466C311.847 370.947 314.781 370.256 317.716 369.565C319.269 369.219 320.822 368.7 322.548 368.182C321.858 368.009 321.167 368.009 320.304 367.836C303.563 364.899 286.994 360.751 270.77 355.221C254.719 349.691 239.186 343.124 224.17 335.174C216.576 331.2 208.982 326.879 201.733 322.386C194.312 317.72 187.236 313.054 180.159 307.87C173.428 302.858 166.697 297.501 160.484 291.798C154.271 286.095 148.23 280.046 142.534 273.652C136.839 267.258 131.316 260.518 126.138 253.779C124.585 251.878 123.204 249.804 121.823 247.903C120.788 246.52 119.752 244.965 118.717 243.583C117.336 241.682 115.782 239.781 113.884 238.225C113.366 237.88 112.848 237.361 112.158 237.016C111.64 236.67 110.95 236.324 110.432 236.152C108.188 235.287 105.772 234.596 103.356 234.251C100.767 233.732 98.178 233.214 95.5891 232.695C90.584 231.486 85.5788 230.276 80.7462 228.548C75.741 226.82 70.7358 224.919 65.9033 222.672C61.2433 220.425 56.7559 218.006 52.4411 215.068C48.1262 212.13 44.1566 208.847 40.5322 205.218C37.2529 201.761 34.1463 197.959 31.5574 193.812C29.1411 188.627 27.07 183.961 25.6892 178.95C24.9989 176.358 24.4811 173.765 24.1359 171.173C23.9633 170.309 23.9633 169.445 23.7907 168.581C23.4455 169.099 23.1004 169.618 22.7552 170.482Z" fill="#4FC7A7"/>
<path d="M113.884 237.706C113.884 237.534 113.712 237.534 113.884 237.706C113.712 237.534 113.884 237.534 113.884 237.706Z" fill="#4FC7A7"/>
<path d="M327.898 272.097C326.518 272.097 324.964 272.27 323.583 272.442C321.167 272.788 318.923 273.479 316.852 274.343C315.817 274.862 314.954 275.38 313.746 276.072C312.71 276.763 311.847 277.627 310.984 278.491C310.639 278.837 310.639 279.355 310.639 279.701C309.603 281.256 308.568 282.638 307.532 283.675C304.426 287.132 300.974 290.415 297.695 293.526L295.623 295.6C291.136 299.92 286.821 304.068 283.024 308.734C280.263 312.017 276.984 316.683 276.121 321.695C275.775 323.768 275.948 326.015 276.811 327.916C277.674 329.817 279.227 331.718 281.471 333.273C282.679 334.137 284.232 335.001 285.441 335.52C286.821 336.211 288.375 336.902 290.273 337.421C294.415 338.803 298.903 339.667 303.563 340.013C305.289 340.186 307.015 340.186 308.741 340.186C311.502 340.186 314.436 340.013 317.37 339.667C321.858 339.149 326.345 338.112 330.832 336.73C339.807 333.965 348.092 329.644 355.168 324.114C358.965 321.176 362.244 317.893 364.488 314.264C367.077 310.289 368.457 306.141 368.63 301.994C368.803 297.673 367.422 293.353 364.66 289.551C363.107 287.304 361.036 285.231 358.102 282.984C355.513 281.083 352.579 279.182 348.955 277.454C345.675 275.899 342.223 274.516 338.599 273.652C335.147 272.615 331.523 272.097 327.898 272.097Z" fill="#5ED1B3"/>
<path d="M361.036 317.547C357.411 319.794 353.442 321.695 349.3 323.25C347.229 324.114 344.985 324.805 342.914 325.497C340.325 326.188 337.909 327.052 335.32 327.57C330.314 328.78 325.137 329.817 319.959 330.508C314.781 331.027 309.603 331.2 304.426 330.681C303.045 330.508 301.664 330.335 300.283 330.163C299.075 329.99 298.04 329.817 296.832 329.471C295.451 329.126 294.07 328.78 292.862 328.262C291.309 327.743 289.755 327.052 288.375 326.361C286.994 325.669 285.44 324.805 284.232 323.768C283.024 322.904 281.816 321.868 280.78 320.658C280.263 320.139 279.745 319.448 279.4 318.757C279.055 318.238 278.709 317.547 278.537 316.856C278.364 316.51 278.364 316.165 278.192 315.819C277.329 317.547 276.638 319.448 276.293 321.522C275.948 323.596 276.12 325.669 276.983 327.743C277.846 329.644 279.4 331.545 281.643 333.1C282.852 333.965 284.405 334.829 285.613 335.347C286.994 336.038 288.547 336.73 290.446 337.248C294.588 338.631 299.075 339.495 303.735 339.84C305.461 340.013 307.187 340.013 308.913 340.013C311.674 340.013 314.609 339.84 317.543 339.495C322.03 338.976 326.517 337.939 331.005 336.557C339.98 333.792 348.264 329.471 355.34 323.941C358.792 321.349 361.726 318.238 363.97 315.128C363.107 316.165 362.071 316.856 361.036 317.547Z" fill="#4FC7A7"/>
<path d="M308.74 281.429C307.532 282.984 306.152 284.539 304.771 285.922C303.39 287.477 301.837 288.86 300.283 290.242C297.177 293.18 293.897 295.945 290.791 298.71C287.684 301.648 284.577 304.586 281.989 307.869C280.78 309.425 279.572 311.153 278.537 312.881C278.019 313.745 277.501 314.609 277.156 315.473C276.638 316.51 276.12 317.547 275.775 318.584C275.43 319.621 275.257 320.485 275.085 321.522C274.912 322.559 275.085 323.596 275.085 324.46C275.257 325.324 275.43 326.188 275.775 327.052C276.12 327.916 276.466 328.607 276.983 329.471C279.055 332.755 282.334 335.001 285.613 336.729C289.755 338.803 294.07 339.84 298.557 340.704C301.146 341.223 303.908 341.395 306.669 341.395C309.431 341.395 312.02 341.223 314.781 341.05C317.37 340.704 319.959 340.359 322.375 339.84C324.964 339.322 327.553 338.63 329.969 337.939C334.284 336.557 338.599 335.001 342.741 332.927C346.883 331.027 350.68 328.607 354.305 325.842C358.102 323.077 361.554 319.966 364.66 316.337C364.833 316.164 364.833 315.992 364.66 315.646C364.488 315.473 364.143 315.473 363.97 315.646C361.208 318.757 358.274 321.522 354.823 323.941C349.472 327.57 343.604 330.508 337.563 332.755C337.563 332.755 337.563 332.755 337.736 332.755H337.563H337.391C337.391 332.755 337.391 332.755 337.563 332.755C334.284 333.964 331.005 335.001 327.553 335.865C323.411 336.902 319.441 337.766 315.126 338.285C312.71 338.458 310.121 338.63 307.705 338.458C305.289 338.458 302.7 338.112 300.283 337.766H300.456H300.283H300.111C300.111 337.766 300.111 337.766 300.283 337.766C297.867 337.421 295.451 336.729 293.034 336.038C291.481 335.52 289.755 335.001 288.202 334.31C286.131 333.446 284.232 332.236 282.506 330.854C281.471 329.99 280.608 329.126 279.745 328.089C279.227 327.397 278.882 326.533 278.537 325.669C278.364 324.978 278.192 324.287 278.019 323.423C278.019 322.559 278.019 321.867 278.019 321.003C278.192 319.621 278.709 318.411 279.227 317.029C280.608 314.091 282.334 311.326 284.405 308.906C288.374 304.24 292.862 300.266 297.349 296.118C299.593 294.044 301.837 291.97 303.908 289.724C305.979 287.477 308.05 285.231 309.776 282.811C310.121 282.466 309.949 281.947 309.603 281.602C309.431 281.429 309.086 281.256 308.913 281.256C309.086 281.083 308.74 281.256 308.74 281.429ZM284.923 308.906L284.75 309.079L284.923 308.906ZM279.745 317.029C279.572 317.029 279.572 317.201 279.745 317.029C279.572 317.201 279.572 317.029 279.745 317.029ZM288.374 334.137C288.547 334.137 288.72 334.31 288.72 334.31C288.72 334.31 288.547 334.31 288.374 334.137Z" fill="#15A881"/>
<path d="M358.447 112.243C363.107 117.773 374.498 116.045 383.818 108.096C393.138 100.319 396.935 89.4315 392.275 83.7286C387.615 78.1986 376.224 79.9267 366.904 87.8762C357.584 95.8257 353.787 106.713 358.447 112.243Z" fill="#A6EBD9"/>
<path d="M324.101 132.808C326.862 135.573 332.903 134.018 337.391 129.352C342.051 124.686 343.431 118.81 340.67 116.045C337.908 113.28 331.868 114.835 327.38 119.501C322.893 123.995 321.339 130.043 324.101 132.808Z" fill="#A6EBD9"/>
<path d="M440.428 68.1756C441.119 71.6319 447.332 73.3601 454.408 72.1504C461.485 70.9407 466.835 67.1387 466.317 63.6824C465.627 60.2261 459.414 58.498 452.337 59.7077C445.261 60.9174 439.911 64.7193 440.428 68.1756Z" fill="#A6EBD9"/>
<path d="M406.946 72.4956C408.499 75.4334 412.814 75.9519 416.611 73.8781C420.408 71.8043 422.306 67.8296 420.753 64.8917C419.2 61.9539 414.885 61.4354 411.088 63.5092C407.291 65.583 405.392 69.5577 406.946 72.4956Z" fill="#A6EBD9"/>
<path d="M288.547 178.086C290.791 180.332 295.278 179.641 298.213 176.53C301.319 173.42 301.837 169.099 299.593 166.853C297.35 164.606 292.862 165.297 289.928 168.408C286.821 171.346 286.131 175.839 288.547 178.086Z" fill="#A6EBD9"/>
<path d="M309.431 150.089C310.466 151.126 312.538 150.781 313.918 149.398C315.299 148.016 315.644 145.942 314.609 144.905C313.573 143.868 311.502 144.214 310.121 145.596C308.741 146.979 308.395 149.053 309.431 150.089Z" fill="#A6EBD9"/>
<path d="M354.65 137.301C355.686 138.338 357.757 137.992 359.137 136.61C360.518 135.227 360.863 133.154 359.828 132.117C358.792 131.08 356.721 131.425 355.34 132.808C353.787 134.363 353.615 136.264 354.65 137.301Z" fill="#A6EBD9"/>
<path d="M409.189 90.2957C409.707 91.5054 411.433 91.851 412.986 90.9869C414.539 90.2957 415.402 88.7403 414.885 87.5306C414.367 86.3209 412.641 85.9753 411.088 86.8394C409.534 87.7034 408.671 89.086 409.189 90.2957Z" fill="#A6EBD9"/>
<path d="M433.007 220.252C437.495 220.252 441.119 214.031 441.292 206.082C441.464 198.132 437.84 191.738 433.353 191.738C428.865 191.738 425.241 197.959 425.068 205.909C424.896 213.685 428.52 220.08 433.007 220.252Z" fill="#15A881"/>
<path d="M593.863 172.901C597.66 170.655 597.66 163.224 593.518 156.484C589.548 149.744 583.162 146.115 579.193 148.361C575.396 150.608 575.396 158.039 579.538 164.779C583.68 171.519 590.066 175.148 593.863 172.901Z" fill="#15A881"/>
<path d="M437.322 202.625C435.941 202.971 433.87 201.415 433.007 199.169C431.971 196.922 432.316 194.676 433.87 194.33C435.251 193.984 437.322 195.54 438.185 197.786C439.048 200.033 438.702 202.28 437.322 202.625Z" fill="#FEFEFE"/>
<path d="M437.667 206.427C436.804 206.427 435.941 205.909 435.941 205.045C435.941 204.181 436.459 203.489 437.322 203.489C438.185 203.489 439.048 204.008 439.048 204.872C439.22 205.563 438.53 206.254 437.667 206.427Z" fill="#FEFEFE"/>
<path d="M589.203 156.484C588.167 157.521 585.579 157.002 583.68 155.274C581.782 153.546 581.091 151.472 582.127 150.608C583.162 149.571 585.751 150.09 587.65 151.818C589.548 153.373 590.239 155.447 589.203 156.484Z" fill="#FEFEFE"/>
<path d="M591.102 159.594C590.411 160.113 589.376 159.94 589.031 159.249C588.513 158.558 588.858 157.693 589.548 157.175C590.239 156.657 591.274 156.829 591.619 157.521C592.137 158.212 591.792 159.076 591.102 159.594Z" fill="#FEFEFE"/>
<path d="M514.471 164.606C513.78 164.779 513.262 165.47 513.435 166.161C513.78 167.717 513.953 169.272 514.125 170.827V170.655C514.125 170.827 514.125 170.827 514.125 171C514.298 172.556 514.125 174.111 513.953 175.494C513.78 176.53 513.435 177.567 512.917 178.604C512.572 179.468 512.054 180.159 511.536 180.851C511.019 181.542 510.328 182.06 509.638 182.579C508.948 183.097 508.085 183.616 507.222 183.961C506.359 184.307 505.323 184.48 504.288 184.653C503.252 184.653 502.216 184.653 501.181 184.48C500.145 184.307 499.11 183.961 498.074 183.443C497.039 182.925 496.176 182.233 495.14 181.542C494.105 180.678 493.242 179.814 492.551 178.777C491.688 177.567 490.998 176.358 490.48 174.975C490.135 174.284 489.272 174.111 488.754 174.457C488.409 174.629 488.236 174.802 488.064 175.148C487.891 175.493 488.064 175.839 488.064 176.185C488.754 177.74 489.617 179.295 490.653 180.678C491.516 181.888 492.724 183.097 493.932 183.961C496.176 185.69 498.765 186.726 501.526 187.072C504.115 187.418 506.704 186.899 509.12 185.69C511.536 184.48 513.435 182.579 514.643 180.159C515.679 178.259 516.196 176.185 516.369 174.111C516.714 171.173 516.196 168.408 515.506 165.47C515.333 164.952 514.816 164.433 514.298 164.433C514.643 164.606 514.643 164.606 514.471 164.606ZM492.551 178.259C492.551 178.431 492.724 178.431 492.551 178.259C492.724 178.431 492.551 178.431 492.551 178.259ZM498.247 183.27C498.247 183.27 498.419 183.27 498.419 183.443C498.419 183.443 498.419 183.27 498.247 183.27Z" fill="#15A881"/>
<path d="M536.562 154.583C536.217 154.583 535.872 154.928 535.699 155.101C535.527 155.274 535.354 155.793 535.527 156.138C535.872 157.175 536.217 158.039 536.389 159.076C536.562 159.94 536.735 160.804 536.735 161.668C536.735 162.878 536.735 164.26 536.562 165.47C536.389 166.507 536.044 167.371 535.699 168.235C535.354 169.099 534.836 169.791 534.146 170.655C533.628 171.346 532.938 171.864 532.247 172.383C531.557 172.901 530.867 173.247 530.004 173.592C529.313 173.765 528.45 173.938 527.587 174.111C526.724 174.111 526.034 174.111 525.171 173.938C524.308 173.765 523.618 173.42 522.755 173.074C521.892 172.556 521.029 172.037 520.338 171.519C519.475 170.655 518.612 169.791 517.922 168.754C517.232 167.717 516.541 166.68 516.024 165.47C515.678 164.779 514.815 164.606 514.298 164.952C513.607 165.297 513.435 165.989 513.78 166.68C515.161 169.791 517.232 172.728 520.166 174.629C521.374 175.321 522.582 176.012 523.963 176.358C524.653 176.53 525.344 176.703 526.034 176.703C526.724 176.703 527.415 176.703 528.105 176.703C530.694 176.53 533.11 175.148 535.009 173.42C536.044 172.556 536.735 171.346 537.425 170.136C537.77 169.445 538.115 168.754 538.288 168.235C538.633 167.544 538.806 166.68 538.806 165.816C539.151 164.26 538.978 162.705 538.978 161.323C538.806 159.422 538.288 157.693 537.598 155.793C537.425 155.447 537.425 155.101 537.08 154.928C536.907 154.756 536.562 154.756 536.389 154.756C536.735 154.583 536.735 154.583 536.562 154.583ZM520.684 171.691L520.856 171.864C520.856 171.691 520.684 171.691 520.684 171.691ZM523.1 173.247C523.1 173.247 523.272 173.247 523.1 173.247C523.272 173.247 523.1 173.247 523.1 173.247ZM530.521 173.42H530.349C530.349 173.592 530.521 173.42 530.521 173.42Z" fill="#15A881"/>
<path d="M480.297 37.76C478.571 37.76 476.673 37.76 474.774 37.9328C473.911 37.9328 473.221 37.9328 472.358 38.1056C467.008 38.4512 461.312 39.1425 455.271 40.1794C449.058 41.3891 442.672 42.7716 436.114 44.8454C424.032 48.4745 411.605 53.3133 399.351 59.5346C393.483 62.4725 387.615 65.756 382.437 68.8666C376.914 72.1501 371.391 75.9521 365.523 80.2724C361.209 83.5559 356.721 87.0122 352.406 90.8141C355.686 88.7404 358.792 86.6666 361.726 84.9384C368.285 80.9637 375.189 77.5074 382.265 74.2239C385.889 72.4958 389.686 70.9404 393.311 69.5579C395.382 68.6938 397.453 68.0026 399.524 67.1385C401.423 66.4472 403.494 65.5832 405.392 64.8919C415.057 61.4356 422.824 58.8434 430.073 56.9424C439.393 54.3502 447.85 52.6221 455.962 51.5852C459.241 51.2395 462.175 50.8939 464.937 50.7211C467.698 50.5483 470.287 50.5483 472.876 50.5483C475.637 50.5483 478.226 50.7211 480.988 50.8939C488.409 51.4124 495.658 52.6221 502.562 54.523C509.811 56.5968 516.714 59.189 523.1 62.4725C529.659 65.9288 535.872 69.9035 541.395 74.3967C543.984 76.4705 546.918 79.0627 549.852 81.8278C552.786 84.5928 555.72 87.5306 558.309 90.4685C563.659 96.3442 568.837 102.738 573.67 109.478C578.33 115.872 582.645 122.612 586.787 129.697C589.203 133.672 591.102 137.129 592.827 140.412C594.899 144.214 596.624 148.016 598.35 151.645C601.802 159.249 604.736 167.025 606.98 174.629C607.498 176.185 607.843 177.913 608.361 179.468C607.843 175.666 607.153 171.691 606.117 167.198C604.564 160.804 602.493 154.41 599.904 147.325C595.416 135.573 589.376 123.476 581.609 110.342C578.502 104.985 574.878 99.4549 570.908 93.752C567.629 89.086 564.177 84.42 560.725 80.0996C553.304 70.7676 545.882 63.3366 537.943 57.1152C533.973 54.0046 529.486 51.0667 524.826 48.4745C520.339 46.0551 515.506 43.9813 510.156 42.2532C501.181 39.3153 491.171 37.76 480.297 37.76Z" fill="#4FC7A7"/>
<path d="M127.519 134.537C127.001 134.709 126.656 135.055 126.311 135.401C125.966 135.919 125.966 136.437 126.138 136.956C126.656 139.375 127.174 141.622 127.519 143.869C128.037 146.288 128.382 148.707 128.727 151.127C128.727 150.954 128.727 150.954 128.727 150.781C129.417 156.138 129.935 161.323 129.935 166.68C129.935 169.272 129.763 172.037 129.763 174.63C129.59 177.395 129.245 180.16 128.9 182.925V182.579C128.555 184.998 128.209 187.245 127.692 189.664C127.174 192.084 126.656 194.503 125.966 196.923C124.585 201.761 123.032 206.6 121.133 211.266C120.615 212.303 120.27 213.513 119.752 214.55C119.58 214.723 119.752 215.068 119.925 215.241C120.097 215.414 120.443 215.241 120.615 215.068C122.859 210.229 124.93 205.391 126.656 200.379C128.382 195.54 129.935 190.529 130.971 185.344C132.006 180.332 132.869 175.148 133.387 169.964C133.905 164.779 133.905 159.595 133.56 154.41C133.387 151.3 133.042 148.189 132.524 145.078C132.006 141.968 131.316 138.684 130.453 135.573C130.108 134.709 129.417 134.018 128.555 134.018C127.864 134.364 127.692 134.364 127.519 134.537Z" fill="#4FC7A7"/>
<path d="M120.96 147.497C120.269 147.67 119.924 148.362 120.097 149.053C120.615 151.127 120.96 153.2 121.305 155.274C121.995 161.323 121.823 167.544 120.96 173.592C120.615 175.666 120.269 177.913 119.924 179.987C119.924 180.332 120.097 180.678 120.442 180.851C120.787 181.024 121.132 180.678 121.305 180.332C122.341 175.148 123.204 169.963 123.549 164.606C123.721 161.841 123.894 159.249 123.721 156.484C123.721 155.101 123.549 153.892 123.376 152.509C123.204 151.127 123.031 149.744 122.686 148.362C122.513 147.843 121.995 147.325 121.478 147.325C121.132 147.325 120.96 147.497 120.96 147.497ZM121.132 154.929V155.101C121.132 155.101 121.132 155.101 121.132 154.929Z" fill="#4FC7A7"/>
<path d="M36.39 172.21C35.8722 172.383 35.527 172.728 35.1818 173.074C34.8366 173.592 34.8366 174.111 35.0092 174.629C35.1818 175.321 35.6996 175.839 36.39 176.012C38.1159 176.53 39.6692 177.222 41.2226 177.913C43.6389 178.95 46.0552 180.159 48.2989 181.369C50.7151 182.579 52.9588 183.961 55.2025 185.344C57.4462 186.726 59.6899 188.109 61.9336 189.664C64.1774 191.22 66.421 192.775 68.4922 194.503L68.3196 194.33C71.5988 196.75 74.7055 199.342 77.6396 202.107C80.7462 204.872 83.8529 207.637 86.9595 210.402C87.1321 210.575 87.4773 210.575 87.6499 210.402C87.8225 210.229 87.8225 209.884 87.6499 209.711C84.0255 206.254 80.401 202.971 76.7766 199.687C73.1522 196.404 69.3551 193.12 65.5581 190.01C61.7611 186.899 57.7914 183.961 53.8218 181.196C49.6796 178.431 45.3648 176.012 41.05 173.938C40.0144 173.42 38.9789 172.901 37.7707 172.383C37.7707 172.383 37.5981 172.383 37.4255 172.21C37.2529 172.21 37.0804 172.21 36.9078 172.21C36.7352 172.21 36.5626 172.21 36.39 172.21Z" fill="#4FC7A7"/>
</g>
<path d="M268.398 254.803H264.525L263.518 257H262.047L266.523 247.385L270.842 257H269.348L268.398 254.803ZM267.842 253.52L266.5 250.443L265.094 253.52H267.842ZM271.727 251.293H273.051V251.82C273.512 251.363 274.031 251.135 274.609 251.135C275.273 251.135 275.791 251.344 276.162 251.762C276.482 252.117 276.643 252.697 276.643 253.502V257H275.318V253.812C275.318 253.25 275.24 252.861 275.084 252.646C274.932 252.428 274.654 252.318 274.252 252.318C273.814 252.318 273.504 252.463 273.32 252.752C273.141 253.037 273.051 253.535 273.051 254.246V257H271.727V251.293ZM279.631 251.293V257H278.312V251.293H279.631ZM278.113 248.92C278.113 248.689 278.197 248.49 278.365 248.322C278.533 248.154 278.734 248.07 278.969 248.07C279.207 248.07 279.41 248.154 279.578 248.322C279.746 248.486 279.83 248.688 279.83 248.926C279.83 249.164 279.746 249.367 279.578 249.535C279.414 249.703 279.213 249.787 278.975 249.787C278.736 249.787 278.533 249.703 278.365 249.535C278.197 249.367 278.113 249.162 278.113 248.92ZM281.301 251.293H282.619V251.82C282.873 251.555 283.09 251.375 283.27 251.281C283.461 251.184 283.701 251.135 283.99 251.135C284.635 251.135 285.145 251.416 285.52 251.979C285.934 251.416 286.494 251.135 287.201 251.135C288.486 251.135 289.129 251.914 289.129 253.473V257H287.805V253.83C287.805 253.283 287.738 252.896 287.605 252.67C287.469 252.439 287.244 252.324 286.932 252.324C286.568 252.324 286.303 252.461 286.135 252.734C285.971 253.008 285.889 253.447 285.889 254.053V257H284.564V253.848C284.564 252.832 284.271 252.324 283.686 252.324C283.314 252.324 283.043 252.463 282.871 252.74C282.703 253.018 282.619 253.455 282.619 254.053V257H281.301V251.293ZM295 251.293H296.324V257H295V256.402C294.457 256.91 293.873 257.164 293.248 257.164C292.459 257.164 291.807 256.879 291.291 256.309C290.779 255.727 290.523 255 290.523 254.129C290.523 253.273 290.779 252.561 291.291 251.99C291.803 251.42 292.443 251.135 293.213 251.135C293.877 251.135 294.473 251.408 295 251.955V251.293ZM291.871 254.129C291.871 254.676 292.018 255.121 292.311 255.465C292.611 255.812 292.99 255.986 293.447 255.986C293.936 255.986 294.33 255.818 294.631 255.482C294.932 255.135 295.082 254.693 295.082 254.158C295.082 253.623 294.932 253.182 294.631 252.834C294.33 252.494 293.939 252.324 293.459 252.324C293.006 252.324 292.627 252.496 292.322 252.84C292.021 253.188 291.871 253.617 291.871 254.129ZM299.348 252.523V257H298.029V252.523H297.467V251.293H298.029V249.201H299.348V251.293H300.373V252.523H299.348ZM306.572 254.457H302.482C302.518 254.926 302.67 255.299 302.939 255.576C303.209 255.85 303.555 255.986 303.977 255.986C304.305 255.986 304.576 255.908 304.791 255.752C305.002 255.596 305.242 255.307 305.512 254.885L306.625 255.506C306.453 255.799 306.271 256.051 306.08 256.262C305.889 256.469 305.684 256.641 305.465 256.777C305.246 256.91 305.01 257.008 304.756 257.07C304.502 257.133 304.227 257.164 303.93 257.164C303.078 257.164 302.395 256.891 301.879 256.344C301.363 255.793 301.105 255.062 301.105 254.152C301.105 253.25 301.355 252.52 301.855 251.961C302.359 251.41 303.027 251.135 303.859 251.135C304.699 251.135 305.363 251.402 305.852 251.938C306.336 252.469 306.578 253.205 306.578 254.146L306.572 254.457ZM305.219 253.379C305.035 252.676 304.592 252.324 303.889 252.324C303.729 252.324 303.578 252.35 303.438 252.4C303.297 252.447 303.168 252.518 303.051 252.611C302.938 252.701 302.84 252.811 302.758 252.939C302.676 253.068 302.613 253.215 302.57 253.379H305.219Z" fill="#3CA88B"/>
<path d="M199.449 251.562L202.971 247.953H204.793L200.703 252.049L204.816 257H202.988L199.73 252.975L199.449 253.256V257H198.084V247.953H199.449V251.562ZM211.355 254.803H207.482L206.475 257H205.004L209.48 247.385L213.799 257H212.305L211.355 254.803ZM210.799 253.52L209.457 250.443L208.051 253.52H210.799ZM218 253.145L220.801 257H219.131L216.547 253.297H216.301V257H214.936V247.953H216.535C217.73 247.953 218.594 248.178 219.125 248.627C219.711 249.127 220.004 249.787 220.004 250.607C220.004 251.248 219.82 251.799 219.453 252.26C219.086 252.721 218.602 253.016 218 253.145ZM216.301 252.107H216.734C218.027 252.107 218.674 251.613 218.674 250.625C218.674 249.699 218.045 249.236 216.787 249.236H216.301V252.107ZM227.48 254.803H223.607L222.6 257H221.129L225.605 247.385L229.924 257H228.43L227.48 254.803ZM226.924 253.52L225.582 250.443L224.176 253.52H226.924ZM232.426 251.562L235.947 247.953H237.77L233.68 252.049L237.793 257H235.965L232.707 252.975L232.426 253.256V257H231.061V247.953H232.426V251.562ZM240.383 247.953V253.402C240.383 254.18 240.51 254.748 240.764 255.107C241.143 255.627 241.676 255.887 242.363 255.887C243.055 255.887 243.59 255.627 243.969 255.107C244.223 254.76 244.35 254.191 244.35 253.402V247.953H245.715V253.777C245.715 254.73 245.418 255.516 244.824 256.133C244.156 256.82 243.336 257.164 242.363 257.164C241.391 257.164 240.572 256.82 239.908 256.133C239.314 255.516 239.018 254.73 239.018 253.777V247.953H240.383ZM250.953 253.145L253.754 257H252.084L249.5 253.297H249.254V257H247.889V247.953H249.488C250.684 247.953 251.547 248.178 252.078 248.627C252.664 249.127 252.957 249.787 252.957 250.607C252.957 251.248 252.773 251.799 252.406 252.26C252.039 252.721 251.555 253.016 250.953 253.145ZM249.254 252.107H249.688C250.98 252.107 251.627 251.613 251.627 250.625C251.627 249.699 250.998 249.236 249.74 249.236H249.254V252.107ZM256.484 247.953V257H255.119V247.953H256.484Z" fill="#3CA88B"/>
<defs>
<clipPath id="clip0_5_28">
<rect width="622.496" height="409" fill="white"/>
</clipPath>
<clipPath id="clip1_5_28">
<rect width="598.378" height="393.154" fill="white" transform="translate(22.2372 15.1213)"/>
</clipPath>
</defs>
</svg>
